<svg id="template_copy" data-name="template copy" xmlns="http://www.w3.org/2000/svg" viewBox="0 0 242.16 279.6"><defs><style>.cls-1{fill:#fff;}</style></defs><title>bud_stage4</title><rect class="cls-1" x="55.88" y="261.56" width="9.32" height="9.02"/><rect class="cls-1" x="65.2" y="261.56" width="9.31" height="9.02"/><rect class="cls-1" x="93.14" y="270.58" width="9.31" height="9.02"/><rect class="cls-1" x="83.82" y="270.58" width="9.32" height="9.02"/><rect class="cls-1" x="102.45" y="270.58" width="9.32" height="9.02"/><rect class="cls-1" x="111.77" y="261.56" width="9.31" height="9.02"/><rect class="cls-1" x="121.08" y="261.56" width="9.31" height="9.02"/><rect class="cls-1" x="74.51" y="270.58" width="9.31" height="9.02"/><rect class="cls-1" x="232.84" y="162.35" width="9.32" height="9.02"/><rect class="cls-1" x="232.84" y="153.33" width="9.32" height="9.02"/><rect class="cls-1" x="232.84" y="144.31" width="9.32" height="9.02"/><rect class="cls-1" x="232.84" y="135.29" width="9.32" height="9.02"/><rect class="cls-1" x="232.84" y="126.27" width="9.32" height="9.02"/><rect class="cls-1" x="232.84" y="117.25" width="9.32" height="9.02"/><rect class="cls-1" x="223.53" y="180.39" width="9.31" height="9.02"/><rect class="cls-1" x="223.53" y="171.37" width="9.31" height="9.02"/><rect class="cls-1" x="223.53" y="162.35" width="9.31" height="9.02"/><rect class="cls-1" x="223.53" y="117.25" width="9.31" height="9.02"/><rect class="cls-1" x="223.53" y="108.23" width="9.31" height="9.02"/><rect class="cls-1" x="223.53" y="99.21" width="9.31" height="9.02"/><rect class="cls-1" x="223.53" y="90.19" width="9.31" height="9.02"/><rect class="cls-1" x="214.22" y="198.43" width="9.31" height="9.02"/><rect class="cls-1" x="214.22" y="189.41" width="9.31" height="9.02"/><rect class="cls-1" x="214.22" y="180.39" width="9.31" height="9.02"/><rect class="cls-1" x="214.22" y="90.19" width="9.31" height="9.02"/><rect class="cls-1" x="214.22" y="81.17" width="9.31" height="9.02"/><rect class="cls-1" x="204.9" y="207.45" width="9.32" height="9.02"/><rect class="cls-1" x="204.9" y="198.43" width="9.32" height="9.02"/><rect class="cls-1" x="204.9" y="81.17" width="9.32" height="9.02"/><rect class="cls-1" x="204.9" y="72.15" width="9.32" height="9.02"/><rect class="cls-1" x="195.59" y="216.47" width="9.31" height="9.02"/><rect class="cls-1" x="195.59" y="207.45" width="9.31" height="9.02"/><rect class="cls-1" x="195.59" y="72.15" width="9.31" height="9.02"/><rect class="cls-1" x="195.59" y="63.13" width="9.31" height="9.02"/><rect class="cls-1" x="186.28" y="216.47" width="9.31" height="9.02"/><rect class="cls-1" x="186.28" y="63.13" width="9.31" height="9.02"/><rect class="cls-1" x="186.28" y="54.11" width="9.31" height="9.02"/><rect class="cls-1" x="176.96" y="216.47" width="9.32" height="9.02"/><rect class="cls-1" x="176.96" y="54.11" width="9.32" height="9.02"/><rect class="cls-1" x="176.96" y="45.09" width="9.32" height="9.02"/><rect class="cls-1" x="167.65" y="216.47" width="9.31" height="9.02"/><rect class="cls-1" x="167.65" y="45.09" width="9.31" height="9.02"/><rect class="cls-1" x="158.33" y="216.47" width="9.32" height="9.02"/><rect class="cls-1" x="158.33" y="45.09" width="9.32" height="9.02"/><rect class="cls-1" x="149.02" y="225.49" width="9.31" height="9.02"/><rect class="cls-1" x="149.02" y="216.47" width="9.31" height="9.02"/><rect class="cls-1" x="149.02" y="36.07" width="9.31" height="9.02"/><rect class="cls-1" x="149.02" y="27.05" width="9.31" height="9.02"/><rect class="cls-1" x="149.02" y="18.03" width="9.31" height="9.02"/><rect class="cls-1" x="149.02" y="9.01" width="9.31" height="9.02"/><rect class="cls-1" x="139.71" y="234.51" width="9.31" height="9.01"/><rect class="cls-1" x="139.71" y="216.47" width="9.31" height="9.02"/><rect class="cls-1" x="139.71" y="45.09" width="9.31" height="9.02"/><rect class="cls-1" x="139.71" y="36.07" width="9.31" height="9.02"/><rect class="cls-1" x="139.71" y="27.05" width="9.31" height="9.02"/><rect class="cls-1" x="139.71" y="18.03" width="9.31" height="9.02"/><rect class="cls-1" x="139.71" y="9.01" width="9.31" height="9.02"/><rect class="cls-1" x="139.71" width="9.31" height="9.01"/><rect class="cls-1" x="130.39" y="252.54" width="9.32" height="9.02"/><rect class="cls-1" x="130.39" y="243.52" width="9.32" height="9.02"/><rect class="cls-1" x="130.39" y="216.47" width="9.32" height="9.02"/><rect class="cls-1" x="130.39" y="207.45" width="9.32" height="9.02"/><rect class="cls-1" x="130.39" y="45.09" width="9.32" height="9.02"/><rect class="cls-1" x="130.39" y="36.07" width="9.32" height="9.02"/><rect class="cls-1" x="130.39" y="27.05" width="9.32" height="9.02"/><rect class="cls-1" x="130.39" y="18.03" width="9.32" height="9.02"/><rect class="cls-1" x="130.39" y="9.01" width="9.32" height="9.02"/><rect class="cls-1" x="130.39" width="9.32" height="9.01"/><rect class="cls-1" x="121.08" y="207.45" width="9.31" height="9.02"/><rect class="cls-1" x="121.08" y="198.43" width="9.31" height="9.02"/><rect class="cls-1" x="121.08" y="54.11" width="9.31" height="9.02"/><rect class="cls-1" x="121.08" y="45.09" width="9.31" height="9.02"/><rect class="cls-1" x="121.08" y="36.07" width="9.31" height="9.02"/><rect class="cls-1" x="121.08" y="27.05" width="9.31" height="9.02"/><rect class="cls-1" x="121.08" y="18.03" width="9.31" height="9.02"/><rect class="cls-1" x="121.08" y="9.01" width="9.31" height="9.02"/><rect class="cls-1" x="121.08" width="9.31" height="9.01"/><rect class="cls-1" x="111.77" y="198.43" width="9.31" height="9.02"/><rect class="cls-1" x="111.77" y="189.41" width="9.31" height="9.02"/><rect class="cls-1" x="111.77" y="63.13" width="9.31" height="9.02"/><rect class="cls-1" x="111.77" y="54.11" width="9.31" height="9.02"/><rect class="cls-1" x="111.77" y="45.09" width="9.31" height="9.02"/><rect class="cls-1" x="111.77" y="36.07" width="9.31" height="9.02"/><rect class="cls-1" x="111.77" y="27.05" width="9.31" height="9.02"/><rect class="cls-1" x="111.77" y="18.03" width="9.31" height="9.02"/><rect class="cls-1" x="111.77" y="9.01" width="9.31" height="9.02"/><rect class="cls-1" x="111.77" width="9.31" height="9.01"/><rect class="cls-1" x="102.45" y="189.41" width="9.32" height="9.02"/><rect class="cls-1" x="102.45" y="180.39" width="9.32" height="9.02"/><rect class="cls-1" x="102.45" y="63.13" width="9.32" height="9.02"/><rect class="cls-1" x="102.45" y="54.11" width="9.32" height="9.02"/><rect class="cls-1" x="102.45" y="45.09" width="9.32" height="9.02"/><rect class="cls-1" x="102.45" y="36.07" width="9.32" height="9.02"/><rect class="cls-1" x="102.45" y="27.05" width="9.32" height="9.02"/><rect class="cls-1" x="102.45" y="18.03" width="9.32" height="9.02"/><rect class="cls-1" x="102.45" y="9.01" width="9.32" height="9.02"/><rect class="cls-1" x="102.45" width="9.32" height="9.01"/><rect class="cls-1" x="93.14" y="180.39" width="9.31" height="9.02"/><rect class="cls-1" x="93.14" y="171.37" width="9.31" height="9.02"/><rect class="cls-1" x="93.14" y="81.17" width="9.31" height="9.02"/><rect class="cls-1" x="93.14" y="72.15" width="9.31" height="9.02"/><rect class="cls-1" x="93.14" y="63.13" width="9.31" height="9.02"/><rect class="cls-1" x="93.14" y="54.11" width="9.31" height="9.02"/><rect class="cls-1" x="93.14" y="45.09" width="9.31" height="9.02"/><rect class="cls-1" x="93.14" y="36.07" width="9.31" height="9.02"/><rect class="cls-1" x="93.14" y="27.05" width="9.31" height="9.02"/><rect class="cls-1" x="93.14" y="18.03" width="9.31" height="9.02"/><rect class="cls-1" x="93.14" y="9.01" width="9.31" height="9.02"/><rect class="cls-1" x="93.14" width="9.31" height="9.01"/><rect class="cls-1" x="83.82" y="171.37" width="9.32" height="9.02"/><rect class="cls-1" x="83.82" y="162.35" width="9.32" height="9.02"/><rect class="cls-1" x="83.82" y="153.33" width="9.32" height="9.02"/><rect class="cls-1" x="83.82" y="144.31" width="9.32" height="9.02"/><rect class="cls-1" x="83.82" y="135.29" width="9.32" height="9.02"/><rect class="cls-1" x="83.82" y="126.27" width="9.32" height="9.02"/><rect class="cls-1" x="83.82" y="117.25" width="9.32" height="9.02"/><rect class="cls-1" x="83.82" y="108.23" width="9.32" height="9.02"/><rect class="cls-1" x="83.82" y="99.21" width="9.32" height="9.02"/><rect class="cls-1" x="83.82" y="90.19" width="9.32" height="9.02"/><rect class="cls-1" x="83.82" y="81.17" width="9.32" height="9.02"/><rect class="cls-1" x="83.82" y="63.13" width="9.32" height="9.02"/><rect class="cls-1" x="83.82" y="54.11" width="9.32" height="9.02"/><rect class="cls-1" x="83.82" y="45.09" width="9.32" height="9.02"/><rect class="cls-1" x="83.82" y="36.07" width="9.32" height="9.02"/><rect class="cls-1" x="83.82" y="27.05" width="9.32" height="9.02"/><rect class="cls-1" x="83.82" y="18.03" width="9.32" height="9.02"/><rect class="cls-1" x="83.82" y="9.01" width="9.32" height="9.02"/><rect class="cls-1" x="74.51" y="162.35" width="9.31" height="9.02"/><rect class="cls-1" x="74.51" y="153.33" width="9.31" height="9.02"/><rect class="cls-1" x="74.51" y="144.31" width="9.31" height="9.02"/><rect class="cls-1" x="74.51" y="63.13" width="9.31" height="9.02"/><rect class="cls-1" x="74.51" y="54.11" width="9.31" height="9.02"/><rect class="cls-1" x="74.51" y="45.09" width="9.31" height="9.02"/><rect class="cls-1" x="74.51" y="36.07" width="9.31" height="9.02"/><rect class="cls-1" x="74.51" y="27.05" width="9.31" height="9.02"/><rect class="cls-1" x="74.51" y="18.03" width="9.31" height="9.02"/><rect class="cls-1" x="74.51" y="9.01" width="9.31" height="9.02"/><rect class="cls-1" x="65.2" y="171.37" width="9.31" height="9.02"/><rect class="cls-1" x="65.2" y="162.35" width="9.31" height="9.02"/><rect class="cls-1" x="65.2" y="153.33" width="9.31" height="9.02"/><rect class="cls-1" x="65.2" y="144.31" width="9.31" height="9.02"/><rect class="cls-1" x="65.2" y="135.29" width="9.31" height="9.02"/><rect class="cls-1" x="65.2" y="63.13" width="9.31" height="9.02"/><rect class="cls-1" x="65.2" y="54.11" width="9.31" height="9.02"/><rect class="cls-1" x="65.2" y="45.09" width="9.31" height="9.02"/><rect class="cls-1" x="65.2" y="36.07" width="9.31" height="9.02"/><rect class="cls-1" x="65.2" y="27.05" width="9.31" height="9.02"/><rect class="cls-1" x="65.2" y="18.03" width="9.31" height="9.02"/><rect class="cls-1" x="55.88" y="252.54" width="9.32" height="9.02"/><rect class="cls-1" x="55.88" y="243.52" width="9.32" height="9.02"/><rect class="cls-1" x="55.88" y="180.39" width="9.32" height="9.02"/><rect class="cls-1" x="55.88" y="171.37" width="9.32" height="9.02"/><rect class="cls-1" x="55.88" y="162.35" width="9.32" height="9.02"/><rect class="cls-1" x="55.88" y="153.33" width="9.32" height="9.02"/><rect class="cls-1" x="55.88" y="144.31" width="9.32" height="9.02"/><rect class="cls-1" x="55.88" y="135.29" width="9.32" height="9.02"/><rect class="cls-1" x="55.88" y="54.11" width="9.32" height="9.02"/><rect class="cls-1" x="55.88" y="45.09" width="9.32" height="9.02"/><rect class="cls-1" x="55.88" y="36.07" width="9.32" height="9.02"/><rect class="cls-1" x="55.88" y="27.05" width="9.32" height="9.02"/><rect class="cls-1" x="46.57" y="243.52" width="9.31" height="9.02"/><rect class="cls-1" x="46.57" y="234.51" width="9.31" height="9.01"/><rect class="cls-1" x="46.57" y="189.41" width="9.31" height="9.02"/><rect class="cls-1" x="46.57" y="180.39" width="9.31" height="9.02"/><rect class="cls-1" x="46.57" y="171.37" width="9.31" height="9.02"/><rect class="cls-1" x="46.57" y="162.35" width="9.31" height="9.02"/><rect class="cls-1" x="46.57" y="153.33" width="9.31" height="9.02"/><rect class="cls-1" x="46.57" y="144.31" width="9.31" height="9.02"/><rect class="cls-1" x="46.57" y="135.29" width="9.31" height="9.02"/><rect class="cls-1" x="37.26" y="234.51" width="9.31" height="9.01"/><rect class="cls-1" x="37.26" y="225.49" width="9.31" height="9.02"/><rect class="cls-1" x="37.26" y="216.47" width="9.31" height="9.02"/><rect class="cls-1" x="37.26" y="207.45" width="9.31" height="9.02"/><rect class="cls-1" x="37.26" y="198.43" width="9.31" height="9.02"/><rect class="cls-1" x="37.26" y="189.41" width="9.31" height="9.02"/><rect class="cls-1" x="37.26" y="180.39" width="9.31" height="9.02"/><rect class="cls-1" x="37.26" y="171.37" width="9.31" height="9.02"/><rect class="cls-1" x="37.26" y="162.35" width="9.31" height="9.02"/><rect class="cls-1" x="37.26" y="153.33" width="9.31" height="9.02"/><rect class="cls-1" x="37.26" y="144.31" width="9.31" height="9.02"/><rect class="cls-1" x="37.26" y="135.29" width="9.31" height="9.02"/><rect class="cls-1" x="27.94" y="198.43" width="9.32" height="9.02"/><rect class="cls-1" x="27.94" y="189.41" width="9.32" height="9.02"/><rect class="cls-1" x="27.94" y="180.39" width="9.32" height="9.02"/><rect class="cls-1" x="27.94" y="171.37" width="9.32" height="9.02"/><rect class="cls-1" x="27.94" y="162.35" width="9.32" height="9.02"/><rect class="cls-1" x="27.94" y="153.33" width="9.32" height="9.02"/><rect class="cls-1" x="27.94" y="144.31" width="9.32" height="9.02"/><rect class="cls-1" x="27.94" y="135.29" width="9.32" height="9.02"/><rect class="cls-1" x="18.63" y="189.41" width="9.31" height="9.02"/><rect class="cls-1" x="18.63" y="180.39" width="9.31" height="9.02"/><rect class="cls-1" x="18.63" y="171.37" width="9.31" height="9.02"/><rect class="cls-1" x="18.63" y="162.35" width="9.31" height="9.02"/><rect class="cls-1" x="18.63" y="153.33" width="9.31" height="9.02"/><rect class="cls-1" x="18.63" y="144.31" width="9.31" height="9.02"/><rect class="cls-1" x="9.31" y="189.41" width="9.32" height="9.02"/><rect class="cls-1" x="9.31" y="180.39" width="9.32" height="9.02"/><rect class="cls-1" x="9.31" y="171.37" width="9.32" height="9.02"/><rect class="cls-1" x="9.31" y="162.35" width="9.32" height="9.02"/><rect class="cls-1" x="9.31" y="153.33" width="9.32" height="9.02"/><rect class="cls-1" y="180.39" width="9.31" height="9.02"/><rect class="cls-1" y="171.37" width="9.31" height="9.02"/><rect class="cls-1" y="162.35" width="9.31" height="9.02"/></svg>