<svg id="Layer_1" data-name="Layer 1" xmlns="http://www.w3.org/2000/svg" viewBox="0 0 272.95 300.23"><defs><style>.cls-1{fill:#fff;}</style></defs><title>bud_bounce</title><rect class="cls-1" x="263.85" y="127.37" width="9.1" height="9.1"/><rect class="cls-1" x="263.85" y="118.27" width="9.1" height="9.1"/><rect class="cls-1" x="263.85" y="109.17" width="9.1" height="9.1"/><rect class="cls-1" x="263.85" y="100.08" width="9.1" height="9.09"/><rect class="cls-1" x="254.75" y="163.76" width="9.1" height="9.1"/><rect class="cls-1" x="254.75" y="154.66" width="9.1" height="9.1"/><rect class="cls-1" x="254.75" y="145.57" width="9.1" height="9.09"/><rect class="cls-1" x="254.75" y="136.47" width="9.1" height="9.1"/><rect class="cls-1" x="254.75" y="90.98" width="9.1" height="9.1"/><rect class="cls-1" x="254.75" y="81.88" width="9.1" height="9.1"/><rect class="cls-1" x="254.75" y="72.78" width="9.1" height="9.1"/><rect class="cls-1" x="245.65" y="191.06" width="9.1" height="9.09"/><rect class="cls-1" x="245.65" y="181.96" width="9.1" height="9.1"/><rect class="cls-1" x="245.65" y="172.86" width="9.1" height="9.1"/><rect class="cls-1" x="245.65" y="63.68" width="9.1" height="9.1"/><rect class="cls-1" x="245.65" y="54.58" width="9.1" height="9.1"/><rect class="cls-1" x="236.55" y="200.15" width="9.1" height="9.1"/><rect class="cls-1" x="236.55" y="45.49" width="9.1" height="9.09"/><rect class="cls-1" x="227.46" y="209.25" width="9.09" height="9.1"/><rect class="cls-1" x="227.46" y="36.39" width="9.09" height="9.1"/><rect class="cls-1" x="218.36" y="209.25" width="9.1" height="9.1"/><rect class="cls-1" x="218.36" y="27.29" width="9.1" height="9.1"/><rect class="cls-1" x="209.26" y="209.25" width="9.1" height="9.1"/><rect class="cls-1" x="209.26" y="18.19" width="9.1" height="9.1"/><rect class="cls-1" x="200.16" y="209.25" width="9.1" height="9.1"/><rect class="cls-1" x="200.16" y="18.19" width="9.1" height="9.1"/><rect class="cls-1" x="200.16" y="9.09" width="9.1" height="9.1"/><rect class="cls-1" x="200.16" width="9.1" height="9.09"/><rect class="cls-1" x="191.06" y="209.25" width="9.1" height="9.1"/><rect class="cls-1" x="191.06" y="18.19" width="9.1" height="9.1"/><rect class="cls-1" x="191.06" y="9.09" width="9.1" height="9.1"/><rect class="cls-1" x="191.06" width="9.1" height="9.09"/><rect class="cls-1" x="181.97" y="209.25" width="9.09" height="9.1"/><rect class="cls-1" x="181.97" y="18.19" width="9.09" height="9.1"/><rect class="cls-1" x="181.97" y="9.09" width="9.09" height="9.1"/><rect class="cls-1" x="181.97" width="9.09" height="9.09"/><rect class="cls-1" x="172.87" y="200.15" width="9.1" height="9.1"/><rect class="cls-1" x="172.87" y="27.29" width="9.1" height="9.1"/><rect class="cls-1" x="172.87" y="18.19" width="9.1" height="9.1"/><rect class="cls-1" x="172.87" y="9.09" width="9.1" height="9.1"/><rect class="cls-1" x="172.87" width="9.1" height="9.09"/><rect class="cls-1" x="163.77" y="200.15" width="9.1" height="9.1"/><rect class="cls-1" x="163.77" y="36.39" width="9.1" height="9.1"/><rect class="cls-1" x="163.77" y="27.29" width="9.1" height="9.1"/><rect class="cls-1" x="163.77" y="18.19" width="9.1" height="9.1"/><rect class="cls-1" x="163.77" y="9.09" width="9.1" height="9.1"/><rect class="cls-1" x="154.67" y="218.35" width="9.1" height="9.1"/><rect class="cls-1" x="154.67" y="209.25" width="9.1" height="9.1"/><rect class="cls-1" x="154.67" y="200.15" width="9.1" height="9.1"/><rect class="cls-1" x="154.67" y="191.06" width="9.1" height="9.09"/><rect class="cls-1" x="154.67" y="181.96" width="9.1" height="9.1"/><rect class="cls-1" x="154.67" y="172.86" width="9.1" height="9.1"/><rect class="cls-1" x="154.67" y="45.49" width="9.1" height="9.09"/><rect class="cls-1" x="145.57" y="227.45" width="9.1" height="9.1"/><rect class="cls-1" x="145.57" y="163.76" width="9.1" height="9.1"/><rect class="cls-1" x="145.57" y="154.66" width="9.1" height="9.1"/><rect class="cls-1" x="145.57" y="145.57" width="9.1" height="9.09"/><rect class="cls-1" x="145.57" y="72.78" width="9.1" height="9.1"/><rect class="cls-1" x="145.57" y="63.68" width="9.1" height="9.1"/><rect class="cls-1" x="145.57" y="54.58" width="9.1" height="9.1"/><rect class="cls-1" x="136.48" y="254.74" width="9.09" height="9.1"/><rect class="cls-1" x="136.48" y="245.64" width="9.09" height="9.1"/><rect class="cls-1" x="136.48" y="236.55" width="9.09" height="9.09"/><rect class="cls-1" x="136.48" y="136.47" width="9.09" height="9.1"/><rect class="cls-1" x="136.48" y="127.37" width="9.09" height="9.1"/><rect class="cls-1" x="136.48" y="118.27" width="9.09" height="9.1"/><rect class="cls-1" x="136.48" y="109.17" width="9.09" height="9.1"/><rect class="cls-1" x="136.48" y="100.08" width="9.09" height="9.09"/><rect class="cls-1" x="136.48" y="90.98" width="9.09" height="9.1"/><rect class="cls-1" x="136.48" y="81.88" width="9.09" height="9.1"/><rect class="cls-1" x="127.38" y="263.84" width="9.1" height="9.1"/><rect class="cls-1" x="127.38" y="254.74" width="9.1" height="9.1"/><rect class="cls-1" x="127.38" y="227.45" width="9.1" height="9.1"/><rect class="cls-1" x="127.38" y="218.35" width="9.1" height="9.1"/><rect class="cls-1" x="127.38" y="100.08" width="9.1" height="9.09"/><rect class="cls-1" x="118.28" y="272.94" width="9.1" height="9.1"/><rect class="cls-1" x="118.28" y="209.25" width="9.1" height="9.1"/><rect class="cls-1" x="118.28" y="90.98" width="9.1" height="9.1"/><rect class="cls-1" x="109.18" y="282.04" width="9.1" height="9.09"/><rect class="cls-1" x="109.18" y="200.15" width="9.1" height="9.1"/><rect class="cls-1" x="109.18" y="81.88" width="9.1" height="9.1"/><rect class="cls-1" x="100.08" y="282.04" width="9.1" height="9.09"/><rect class="cls-1" x="100.08" y="191.06" width="9.1" height="9.09"/><rect class="cls-1" x="100.08" y="81.88" width="9.1" height="9.1"/><rect class="cls-1" x="90.98" y="291.13" width="9.1" height="9.1"/><rect class="cls-1" x="90.98" y="181.96" width="9.1" height="9.1"/><rect class="cls-1" x="90.98" y="72.78" width="9.1" height="9.1"/><rect class="cls-1" x="81.89" y="291.13" width="9.09" height="9.1"/><rect class="cls-1" x="81.89" y="181.96" width="9.09" height="9.1"/><rect class="cls-1" x="81.89" y="72.78" width="9.09" height="9.1"/><rect class="cls-1" x="72.79" y="291.13" width="9.1" height="9.1"/><rect class="cls-1" x="72.79" y="172.86" width="9.1" height="9.1"/><rect class="cls-1" x="72.79" y="72.78" width="9.1" height="9.1"/><rect class="cls-1" x="72.79" y="63.68" width="9.1" height="9.1"/><rect class="cls-1" x="63.69" y="291.13" width="9.1" height="9.1"/><rect class="cls-1" x="63.69" y="163.76" width="9.1" height="9.1"/><rect class="cls-1" x="63.69" y="154.66" width="9.1" height="9.1"/><rect class="cls-1" x="63.69" y="81.88" width="9.1" height="9.1"/><rect class="cls-1" x="63.69" y="72.78" width="9.1" height="9.1"/><rect class="cls-1" x="63.69" y="63.68" width="9.1" height="9.1"/><rect class="cls-1" x="54.59" y="282.04" width="9.1" height="9.09"/><rect class="cls-1" x="54.59" y="163.76" width="9.1" height="9.1"/><rect class="cls-1" x="54.59" y="145.57" width="9.1" height="9.09"/><rect class="cls-1" x="54.59" y="136.47" width="9.1" height="9.1"/><rect class="cls-1" x="54.59" y="100.08" width="9.1" height="9.09"/><rect class="cls-1" x="54.59" y="90.98" width="9.1" height="9.1"/><rect class="cls-1" x="54.59" y="81.88" width="9.1" height="9.1"/><rect class="cls-1" x="54.59" y="72.78" width="9.1" height="9.1"/><rect class="cls-1" x="54.59" y="63.68" width="9.1" height="9.1"/><rect class="cls-1" x="45.49" y="272.94" width="9.1" height="9.1"/><rect class="cls-1" x="45.49" y="163.76" width="9.1" height="9.1"/><rect class="cls-1" x="45.49" y="127.37" width="9.1" height="9.1"/><rect class="cls-1" x="45.49" y="118.27" width="9.1" height="9.1"/><rect class="cls-1" x="45.49" y="109.17" width="9.1" height="9.1"/><rect class="cls-1" x="45.49" y="81.88" width="9.1" height="9.1"/><rect class="cls-1" x="45.49" y="72.78" width="9.1" height="9.1"/><rect class="cls-1" x="45.49" y="63.68" width="9.1" height="9.1"/><rect class="cls-1" x="36.4" y="272.94" width="9.09" height="9.1"/><rect class="cls-1" x="36.4" y="163.76" width="9.09" height="9.1"/><rect class="cls-1" x="27.3" y="263.84" width="9.1" height="9.1"/><rect class="cls-1" x="27.3" y="191.06" width="9.1" height="9.09"/><rect class="cls-1" x="27.3" y="181.96" width="9.1" height="9.1"/><rect class="cls-1" x="27.3" y="172.86" width="9.1" height="9.1"/><rect class="cls-1" x="27.3" y="163.76" width="9.1" height="9.1"/><rect class="cls-1" x="18.2" y="254.74" width="9.1" height="9.1"/><rect class="cls-1" x="18.2" y="245.64" width="9.1" height="9.1"/><rect class="cls-1" x="18.2" y="191.06" width="9.1" height="9.09"/><rect class="cls-1" x="18.2" y="181.96" width="9.1" height="9.1"/><rect class="cls-1" x="18.2" y="172.86" width="9.1" height="9.1"/><rect class="cls-1" x="18.2" y="163.76" width="9.1" height="9.1"/><rect class="cls-1" x="9.1" y="236.55" width="9.1" height="9.09"/><rect class="cls-1" x="9.1" y="191.06" width="9.1" height="9.09"/><rect class="cls-1" x="9.1" y="181.96" width="9.1" height="9.1"/><rect class="cls-1" x="9.1" y="172.86" width="9.1" height="9.1"/><rect class="cls-1" x="9.1" y="163.76" width="9.1" height="9.1"/><rect class="cls-1" y="227.45" width="9.1" height="9.1"/><rect class="cls-1" y="218.35" width="9.1" height="9.1"/><rect class="cls-1" y="209.25" width="9.1" height="9.1"/><rect class="cls-1" y="200.15" width="9.1" height="9.1"/><rect class="cls-1" y="191.06" width="9.1" height="9.09"/><rect class="cls-1" y="181.96" width="9.1" height="9.1"/><rect class="cls-1" y="172.86" width="9.1" height="9.1"/><rect class="cls-1" y="163.76" width="9.1" height="9.1"/></svg>