<svg id="Layer_5" data-name="Layer 5" xmlns="http://www.w3.org/2000/svg" viewBox="0 0 223.53 270.59"><defs><style>.cls-1{fill:#fff;}</style></defs><title>bud_stage2</title><rect class="cls-1" x="214.21" y="144.32" width="9.32" height="9.02"/><rect class="cls-1" x="214.21" y="135.3" width="9.32" height="9.02"/><rect class="cls-1" x="214.21" y="126.28" width="9.32" height="9.02"/><rect class="cls-1" x="214.21" y="117.26" width="9.32" height="9.02"/><rect class="cls-1" x="214.21" y="108.24" width="9.32" height="9.02"/><rect class="cls-1" x="214.21" y="99.22" width="9.32" height="9.02"/><rect class="cls-1" x="214.21" y="90.2" width="9.32" height="9.02"/><rect class="cls-1" x="214.21" y="81.18" width="9.32" height="9.02"/><rect class="cls-1" x="204.9" y="180.4" width="9.31" height="9.02"/><rect class="cls-1" x="204.9" y="171.38" width="9.31" height="9.02"/><rect class="cls-1" x="204.9" y="162.36" width="9.31" height="9.02"/><rect class="cls-1" x="204.9" y="153.34" width="9.31" height="9.02"/><rect class="cls-1" x="204.9" y="72.16" width="9.31" height="9.02"/><rect class="cls-1" x="204.9" y="63.14" width="9.31" height="9.02"/><rect class="cls-1" x="195.59" y="207.46" width="9.31" height="9.02"/><rect class="cls-1" x="195.59" y="198.44" width="9.31" height="9.02"/><rect class="cls-1" x="195.59" y="189.42" width="9.31" height="9.02"/><rect class="cls-1" x="195.59" y="54.12" width="9.31" height="9.02"/><rect class="cls-1" x="186.27" y="207.46" width="9.32" height="9.02"/><rect class="cls-1" x="186.27" y="45.1" width="9.32" height="9.02"/><rect class="cls-1" x="176.96" y="207.46" width="9.31" height="9.02"/><rect class="cls-1" x="176.96" y="36.08" width="9.31" height="9.02"/><rect class="cls-1" x="167.65" y="216.48" width="9.31" height="9.02"/><rect class="cls-1" x="167.65" y="27.06" width="9.31" height="9.02"/><rect class="cls-1" x="167.65" y="18.04" width="9.31" height="9.02"/><rect class="cls-1" x="167.65" y="9.02" width="9.31" height="9.02"/><rect class="cls-1" x="158.33" y="216.48" width="9.32" height="9.02"/><rect class="cls-1" x="158.33" y="27.06" width="9.32" height="9.02"/><rect class="cls-1" x="158.33" y="18.04" width="9.32" height="9.02"/><rect class="cls-1" x="158.33" y="9.02" width="9.32" height="9.02"/><rect class="cls-1" x="158.33" width="9.32" height="9.02"/><rect class="cls-1" x="149.02" y="216.48" width="9.31" height="9.02"/><rect class="cls-1" x="149.02" y="27.06" width="9.31" height="9.02"/><rect class="cls-1" x="149.02" y="18.04" width="9.31" height="9.02"/><rect class="cls-1" x="149.02" y="9.02" width="9.31" height="9.02"/><rect class="cls-1" x="149.02" width="9.31" height="9.02"/><rect class="cls-1" x="139.7" y="216.48" width="9.32" height="9.02"/><rect class="cls-1" x="139.7" y="27.06" width="9.32" height="9.02"/><rect class="cls-1" x="139.7" y="18.04" width="9.32" height="9.02"/><rect class="cls-1" x="139.7" y="9.02" width="9.32" height="9.02"/><rect class="cls-1" x="139.7" width="9.32" height="9.02"/><rect class="cls-1" x="130.39" y="216.48" width="9.31" height="9.02"/><rect class="cls-1" x="130.39" y="207.46" width="9.31" height="9.02"/><rect class="cls-1" x="130.39" y="198.44" width="9.31" height="9.02"/><rect class="cls-1" x="130.39" y="27.06" width="9.31" height="9.02"/><rect class="cls-1" x="130.39" y="18.04" width="9.31" height="9.02"/><rect class="cls-1" x="130.39" y="9.02" width="9.31" height="9.02"/><rect class="cls-1" x="130.39" width="9.31" height="9.02"/><rect class="cls-1" x="121.08" y="243.53" width="9.31" height="9.02"/><rect class="cls-1" x="121.08" y="234.51" width="9.31" height="9.02"/><rect class="cls-1" x="121.08" y="225.5" width="9.31" height="9.01"/><rect class="cls-1" x="121.08" y="198.44" width="9.31" height="9.02"/><rect class="cls-1" x="121.08" y="189.42" width="9.31" height="9.02"/><rect class="cls-1" x="121.08" y="36.08" width="9.31" height="9.02"/><rect class="cls-1" x="121.08" y="27.06" width="9.31" height="9.02"/><rect class="cls-1" x="121.08" y="18.04" width="9.31" height="9.02"/><rect class="cls-1" x="121.08" y="9.02" width="9.31" height="9.02"/><rect class="cls-1" x="111.76" y="252.55" width="9.32" height="9.02"/><rect class="cls-1" x="111.76" y="189.42" width="9.32" height="9.02"/><rect class="cls-1" x="111.76" y="54.12" width="9.32" height="9.02"/><rect class="cls-1" x="111.76" y="45.1" width="9.32" height="9.02"/><rect class="cls-1" x="102.45" y="252.55" width="9.31" height="9.02"/><rect class="cls-1" x="102.45" y="180.4" width="9.31" height="9.02"/><rect class="cls-1" x="102.45" y="171.38" width="9.31" height="9.02"/><rect class="cls-1" x="102.45" y="162.36" width="9.31" height="9.02"/><rect class="cls-1" x="102.45" y="153.34" width="9.31" height="9.02"/><rect class="cls-1" x="102.45" y="144.32" width="9.31" height="9.02"/><rect class="cls-1" x="102.45" y="135.3" width="9.31" height="9.02"/><rect class="cls-1" x="102.45" y="126.28" width="9.31" height="9.02"/><rect class="cls-1" x="102.45" y="117.26" width="9.31" height="9.02"/><rect class="cls-1" x="102.45" y="108.24" width="9.31" height="9.02"/><rect class="cls-1" x="102.45" y="99.22" width="9.31" height="9.02"/><rect class="cls-1" x="102.45" y="90.2" width="9.31" height="9.02"/><rect class="cls-1" x="102.45" y="81.18" width="9.31" height="9.02"/><rect class="cls-1" x="102.45" y="72.16" width="9.31" height="9.02"/><rect class="cls-1" x="102.45" y="63.14" width="9.31" height="9.02"/><rect class="cls-1" x="93.14" y="261.57" width="9.31" height="9.02"/><rect class="cls-1" x="93.14" y="171.38" width="9.31" height="9.02"/><rect class="cls-1" x="93.14" y="108.24" width="9.31" height="9.02"/><rect class="cls-1" x="83.82" y="261.57" width="9.32" height="9.02"/><rect class="cls-1" x="83.82" y="171.38" width="9.32" height="9.02"/><rect class="cls-1" x="83.82" y="108.24" width="9.32" height="9.02"/><rect class="cls-1" x="74.51" y="261.57" width="9.31" height="9.02"/><rect class="cls-1" x="74.51" y="162.36" width="9.31" height="9.02"/><rect class="cls-1" x="74.51" y="108.24" width="9.31" height="9.02"/><rect class="cls-1" x="74.51" y="99.22" width="9.31" height="9.02"/><rect class="cls-1" x="65.19" y="261.57" width="9.32" height="9.02"/><rect class="cls-1" x="65.19" y="162.36" width="9.32" height="9.02"/><rect class="cls-1" x="65.19" y="153.34" width="9.32" height="9.02"/><rect class="cls-1" x="65.19" y="117.26" width="9.32" height="9.02"/><rect class="cls-1" x="65.19" y="108.24" width="9.32" height="9.02"/><rect class="cls-1" x="65.19" y="99.22" width="9.32" height="9.02"/><rect class="cls-1" x="55.88" y="252.55" width="9.31" height="9.02"/><rect class="cls-1" x="55.88" y="162.36" width="9.31" height="9.02"/><rect class="cls-1" x="55.88" y="144.32" width="9.31" height="9.02"/><rect class="cls-1" x="55.88" y="135.3" width="9.31" height="9.02"/><rect class="cls-1" x="55.88" y="126.28" width="9.31" height="9.02"/><rect class="cls-1" x="55.88" y="117.26" width="9.31" height="9.02"/><rect class="cls-1" x="55.88" y="108.24" width="9.31" height="9.02"/><rect class="cls-1" x="55.88" y="99.22" width="9.31" height="9.02"/><rect class="cls-1" x="46.57" y="243.53" width="9.31" height="9.02"/><rect class="cls-1" x="46.57" y="162.36" width="9.31" height="9.02"/><rect class="cls-1" x="46.57" y="126.28" width="9.31" height="9.02"/><rect class="cls-1" x="46.57" y="117.26" width="9.31" height="9.02"/><rect class="cls-1" x="46.57" y="108.24" width="9.31" height="9.02"/><rect class="cls-1" x="46.57" y="99.22" width="9.31" height="9.02"/><rect class="cls-1" x="37.25" y="234.51" width="9.32" height="9.02"/><rect class="cls-1" x="37.25" y="171.38" width="9.32" height="9.02"/><rect class="cls-1" x="37.25" y="162.36" width="9.32" height="9.02"/><rect class="cls-1" x="37.25" y="153.34" width="9.32" height="9.02"/><rect class="cls-1" x="27.94" y="225.5" width="9.31" height="9.01"/><rect class="cls-1" x="27.94" y="180.4" width="9.31" height="9.02"/><rect class="cls-1" x="27.94" y="171.38" width="9.31" height="9.02"/><rect class="cls-1" x="27.94" y="162.36" width="9.31" height="9.02"/><rect class="cls-1" x="27.94" y="153.34" width="9.31" height="9.02"/><rect class="cls-1" x="18.63" y="216.48" width="9.31" height="9.02"/><rect class="cls-1" x="18.63" y="189.42" width="9.31" height="9.02"/><rect class="cls-1" x="18.63" y="180.4" width="9.31" height="9.02"/><rect class="cls-1" x="18.63" y="171.38" width="9.31" height="9.02"/><rect class="cls-1" x="18.63" y="162.36" width="9.31" height="9.02"/><rect class="cls-1" x="18.63" y="153.34" width="9.31" height="9.02"/><rect class="cls-1" x="9.31" y="207.46" width="9.32" height="9.02"/><rect class="cls-1" x="9.31" y="198.44" width="9.32" height="9.02"/><rect class="cls-1" x="9.31" y="189.42" width="9.32" height="9.02"/><rect class="cls-1" x="9.31" y="180.4" width="9.32" height="9.02"/><rect class="cls-1" x="9.31" y="171.38" width="9.32" height="9.02"/><rect class="cls-1" x="9.31" y="162.36" width="9.32" height="9.02"/><rect class="cls-1" x="9.31" y="153.34" width="9.32" height="9.02"/><rect class="cls-1" y="189.42" width="9.31" height="9.02"/><rect class="cls-1" y="180.4" width="9.31" height="9.02"/><rect class="cls-1" y="171.38" width="9.31" height="9.02"/><rect class="cls-1" y="162.36" width="9.31" height="9.02"/></svg>