<svg id="template" xmlns="http://www.w3.org/2000/svg" viewBox="0 0 223.53 270.58"><defs><style>.cls-1{fill:#fff;}</style></defs><title>bud_stage3</title><rect class="cls-1" x="195.59" y="207.45" width="9.31" height="9.02"/><rect class="cls-1" x="204.9" y="189.41" width="9.32" height="9.02"/><rect class="cls-1" x="204.9" y="198.43" width="9.32" height="9.02"/><rect class="cls-1" x="204.9" y="180.39" width="9.32" height="9.02"/><rect class="cls-1" x="214.22" y="171.37" width="9.31" height="9.02"/><rect class="cls-1" x="65.2" y="144.31" width="9.31" height="9.02"/><rect class="cls-1" x="111.77" y="243.53" width="9.31" height="9.02"/><rect class="cls-1" x="130.39" y="225.49" width="9.32" height="9.02"/><rect class="cls-1" x="130.39" y="234.51" width="9.32" height="9.02"/><rect class="cls-1" x="121.08" y="243.53" width="9.31" height="9.02"/><rect class="cls-1" x="121.08" y="234.51" width="9.31" height="9.02"/><rect class="cls-1" x="130.39" y="216.47" width="9.32" height="9.02"/><rect class="cls-1" x="111.77" y="189.41" width="9.31" height="9.02"/><rect class="cls-1" x="121.08" y="198.43" width="9.31" height="9.02"/><rect class="cls-1" x="130.39" y="198.43" width="9.32" height="9.02"/><rect class="cls-1" x="130.39" y="207.45" width="9.32" height="9.02"/><rect class="cls-1" x="139.71" y="207.45" width="9.31" height="9.02"/><rect class="cls-1" x="149.02" y="207.45" width="9.32" height="9.02"/><rect class="cls-1" x="158.34" y="207.45" width="9.31" height="9.02"/><rect class="cls-1" x="167.65" y="216.47" width="9.31" height="9.02"/><rect class="cls-1" x="158.34" y="216.47" width="9.31" height="9.02"/><rect class="cls-1" x="176.96" y="216.47" width="9.32" height="9.02"/><rect class="cls-1" x="186.28" y="216.47" width="9.31" height="9.02"/><rect class="cls-1" x="65.2" y="252.55" width="9.31" height="9.01"/><rect class="cls-1" x="74.51" y="252.55" width="9.32" height="9.01"/><rect class="cls-1" x="74.51" y="261.56" width="9.32" height="9.02"/><rect class="cls-1" x="93.14" y="261.56" width="9.31" height="9.02"/><rect class="cls-1" x="83.83" y="261.56" width="9.31" height="9.02"/><rect class="cls-1" x="111.77" y="252.55" width="9.31" height="9.01"/><rect class="cls-1" x="102.45" y="261.56" width="9.32" height="9.02"/><rect class="cls-1" x="111.77" y="261.56" width="9.31" height="9.02"/><rect class="cls-1" x="83.83" y="171.37" width="9.31" height="9.02"/><rect class="cls-1" x="93.14" y="180.39" width="9.31" height="9.02"/><rect class="cls-1" x="93.14" y="171.37" width="9.31" height="9.02"/><rect class="cls-1" x="102.45" y="180.39" width="9.32" height="9.02"/><rect class="cls-1" x="214.22" y="162.35" width="9.31" height="9.02"/><rect class="cls-1" x="214.22" y="153.33" width="9.31" height="9.02"/><rect class="cls-1" x="214.22" y="144.31" width="9.31" height="9.02"/><rect class="cls-1" x="214.22" y="135.29" width="9.31" height="9.02"/><rect class="cls-1" x="214.22" y="126.27" width="9.31" height="9.02"/><rect class="cls-1" x="214.22" y="117.25" width="9.31" height="9.02"/><rect class="cls-1" x="214.22" y="108.23" width="9.31" height="9.02"/><rect class="cls-1" x="214.22" y="99.21" width="9.31" height="9.02"/><rect class="cls-1" x="204.9" y="99.21" width="9.32" height="9.02"/><rect class="cls-1" x="204.9" y="90.19" width="9.32" height="9.02"/><rect class="cls-1" x="204.9" y="81.17" width="9.32" height="9.02"/><rect class="cls-1" x="195.59" y="81.17" width="9.31" height="9.02"/><rect class="cls-1" x="195.59" y="72.15" width="9.31" height="9.02"/><rect class="cls-1" x="186.28" y="72.15" width="9.31" height="9.02"/><rect class="cls-1" x="186.28" y="63.13" width="9.31" height="9.02"/><rect class="cls-1" x="176.96" y="63.13" width="9.32" height="9.02"/><rect class="cls-1" x="176.96" y="54.11" width="9.32" height="9.02"/><rect class="cls-1" x="167.65" y="45.09" width="9.31" height="9.02"/><rect class="cls-1" x="158.34" y="45.09" width="9.31" height="9.02"/><rect class="cls-1" x="158.34" y="36.07" width="9.31" height="9.02"/><rect class="cls-1" x="149.02" y="36.07" width="9.32" height="9.02"/><rect class="cls-1" x="139.71" y="36.07" width="9.31" height="9.02"/><rect class="cls-1" x="130.39" y="36.07" width="9.32" height="9.02"/><rect class="cls-1" x="130.39" y="27.05" width="9.32" height="9.02"/><rect class="cls-1" x="130.39" y="18.04" width="9.32" height="9.01"/><rect class="cls-1" x="130.39" y="9.02" width="9.32" height="9.02"/><rect class="cls-1" x="121.08" y="45.09" width="9.31" height="9.02"/><rect class="cls-1" x="121.08" y="36.07" width="9.31" height="9.02"/><rect class="cls-1" x="121.08" y="27.05" width="9.31" height="9.02"/><rect class="cls-1" x="121.08" y="18.04" width="9.31" height="9.01"/><rect class="cls-1" x="121.08" y="9.02" width="9.31" height="9.02"/><rect class="cls-1" x="121.08" width="9.31" height="9.02"/><rect class="cls-1" x="111.77" y="45.09" width="9.31" height="9.02"/><rect class="cls-1" x="111.77" y="36.07" width="9.31" height="9.02"/><rect class="cls-1" x="111.77" y="27.05" width="9.31" height="9.02"/><rect class="cls-1" x="111.77" y="18.04" width="9.31" height="9.01"/><rect class="cls-1" x="111.77" y="9.02" width="9.31" height="9.02"/><rect class="cls-1" x="111.77" width="9.31" height="9.02"/><rect class="cls-1" x="102.45" y="171.37" width="9.32" height="9.02"/><rect class="cls-1" x="102.45" y="162.35" width="9.32" height="9.02"/><rect class="cls-1" x="102.45" y="54.11" width="9.32" height="9.02"/><rect class="cls-1" x="102.45" y="45.09" width="9.32" height="9.02"/><rect class="cls-1" x="102.45" y="36.07" width="9.32" height="9.02"/><rect class="cls-1" x="102.45" y="27.05" width="9.32" height="9.02"/><rect class="cls-1" x="102.45" y="18.04" width="9.32" height="9.01"/><rect class="cls-1" x="102.45" y="9.02" width="9.32" height="9.02"/><rect class="cls-1" x="102.45" width="9.32" height="9.02"/><rect class="cls-1" x="93.14" y="162.35" width="9.31" height="9.02"/><rect class="cls-1" x="93.14" y="153.33" width="9.31" height="9.02"/><rect class="cls-1" x="93.14" y="54.11" width="9.31" height="9.02"/><rect class="cls-1" x="93.14" y="45.09" width="9.31" height="9.02"/><rect class="cls-1" x="93.14" y="36.07" width="9.31" height="9.02"/><rect class="cls-1" x="93.14" y="27.05" width="9.31" height="9.02"/><rect class="cls-1" x="93.14" y="18.04" width="9.31" height="9.01"/><rect class="cls-1" x="93.14" y="9.02" width="9.31" height="9.02"/><rect class="cls-1" x="93.14" width="9.31" height="9.02"/><rect class="cls-1" x="83.83" y="153.33" width="9.31" height="9.02"/><rect class="cls-1" x="83.83" y="144.31" width="9.31" height="9.02"/><rect class="cls-1" x="83.83" y="135.29" width="9.31" height="9.02"/><rect class="cls-1" x="83.83" y="63.13" width="9.31" height="9.02"/><rect class="cls-1" x="83.83" y="54.11" width="9.31" height="9.02"/><rect class="cls-1" x="83.83" y="45.09" width="9.31" height="9.02"/><rect class="cls-1" x="83.83" y="36.07" width="9.31" height="9.02"/><rect class="cls-1" x="83.83" y="27.05" width="9.31" height="9.02"/><rect class="cls-1" x="83.83" y="18.04" width="9.31" height="9.01"/><rect class="cls-1" x="83.83" y="9.02" width="9.31" height="9.02"/><rect class="cls-1" x="74.51" y="162.35" width="9.32" height="9.02"/><rect class="cls-1" x="74.51" y="144.31" width="9.32" height="9.02"/><rect class="cls-1" x="74.51" y="135.29" width="9.32" height="9.02"/><rect class="cls-1" x="74.51" y="126.27" width="9.32" height="9.02"/><rect class="cls-1" x="74.51" y="117.25" width="9.32" height="9.02"/><rect class="cls-1" x="74.51" y="108.23" width="9.32" height="9.02"/><rect class="cls-1" x="74.51" y="81.17" width="9.32" height="9.02"/><rect class="cls-1" x="74.51" y="72.15" width="9.32" height="9.02"/><rect class="cls-1" x="74.51" y="63.13" width="9.32" height="9.02"/><rect class="cls-1" x="74.51" y="54.11" width="9.32" height="9.02"/><rect class="cls-1" x="74.51" y="45.09" width="9.32" height="9.02"/><rect class="cls-1" x="74.51" y="36.07" width="9.32" height="9.02"/><rect class="cls-1" x="74.51" y="27.05" width="9.32" height="9.02"/><rect class="cls-1" x="74.51" y="18.04" width="9.32" height="9.01"/><rect class="cls-1" x="74.51" y="9.02" width="9.32" height="9.02"/><rect class="cls-1" x="65.2" y="153.33" width="9.31" height="9.02"/><rect class="cls-1" x="65.2" y="108.23" width="9.31" height="9.02"/><rect class="cls-1" x="65.2" y="99.21" width="9.31" height="9.02"/><rect class="cls-1" x="65.2" y="90.19" width="9.31" height="9.02"/><rect class="cls-1" x="65.2" y="81.17" width="9.31" height="9.02"/><rect class="cls-1" x="65.2" y="45.09" width="9.31" height="9.02"/><rect class="cls-1" x="65.2" y="36.07" width="9.31" height="9.02"/><rect class="cls-1" x="65.2" y="27.05" width="9.31" height="9.02"/><rect class="cls-1" x="65.2" y="18.04" width="9.31" height="9.01"/><rect class="cls-1" x="55.88" y="252.55" width="9.32" height="9.01"/><rect class="cls-1" x="55.88" y="180.39" width="9.32" height="9.02"/><rect class="cls-1" x="55.88" y="171.37" width="9.32" height="9.02"/><rect class="cls-1" x="55.88" y="162.35" width="9.32" height="9.02"/><rect class="cls-1" x="55.88" y="153.33" width="9.32" height="9.02"/><rect class="cls-1" x="55.88" y="144.31" width="9.32" height="9.02"/><rect class="cls-1" x="46.57" y="252.55" width="9.31" height="9.01"/><rect class="cls-1" x="46.57" y="243.53" width="9.31" height="9.02"/><rect class="cls-1" x="46.57" y="189.41" width="9.31" height="9.02"/><rect class="cls-1" x="46.57" y="180.39" width="9.31" height="9.02"/><rect class="cls-1" x="46.57" y="171.37" width="9.31" height="9.02"/><rect class="cls-1" x="46.57" y="162.35" width="9.31" height="9.02"/><rect class="cls-1" x="46.57" y="153.33" width="9.31" height="9.02"/><rect class="cls-1" x="46.57" y="144.31" width="9.31" height="9.02"/><rect class="cls-1" x="37.26" y="243.53" width="9.31" height="9.02"/><rect class="cls-1" x="37.26" y="234.51" width="9.31" height="9.02"/><rect class="cls-1" x="37.26" y="198.43" width="9.31" height="9.02"/><rect class="cls-1" x="37.26" y="189.41" width="9.31" height="9.02"/><rect class="cls-1" x="37.26" y="180.39" width="9.31" height="9.02"/><rect class="cls-1" x="37.26" y="171.37" width="9.31" height="9.02"/><rect class="cls-1" x="37.26" y="162.35" width="9.31" height="9.02"/><rect class="cls-1" x="37.26" y="153.33" width="9.31" height="9.02"/><rect class="cls-1" x="37.26" y="144.31" width="9.31" height="9.02"/><rect class="cls-1" x="27.94" y="234.51" width="9.32" height="9.02"/><rect class="cls-1" x="27.94" y="225.49" width="9.32" height="9.02"/><rect class="cls-1" x="27.94" y="198.43" width="9.32" height="9.02"/><rect class="cls-1" x="27.94" y="189.41" width="9.32" height="9.02"/><rect class="cls-1" x="27.94" y="180.39" width="9.32" height="9.02"/><rect class="cls-1" x="27.94" y="171.37" width="9.32" height="9.02"/><rect class="cls-1" x="27.94" y="162.35" width="9.32" height="9.02"/><rect class="cls-1" x="27.94" y="153.33" width="9.32" height="9.02"/><rect class="cls-1" x="27.94" y="144.31" width="9.32" height="9.02"/><rect class="cls-1" x="18.63" y="225.49" width="9.31" height="9.02"/><rect class="cls-1" x="18.63" y="216.47" width="9.31" height="9.02"/><rect class="cls-1" x="18.63" y="207.45" width="9.31" height="9.02"/><rect class="cls-1" x="18.63" y="198.43" width="9.31" height="9.02"/><rect class="cls-1" x="18.63" y="189.41" width="9.31" height="9.02"/><rect class="cls-1" x="18.63" y="180.39" width="9.31" height="9.02"/><rect class="cls-1" x="18.63" y="171.37" width="9.31" height="9.02"/><rect class="cls-1" x="18.63" y="162.35" width="9.31" height="9.02"/><rect class="cls-1" x="18.63" y="153.33" width="9.31" height="9.02"/><rect class="cls-1" x="18.63" y="144.31" width="9.31" height="9.02"/><rect class="cls-1" x="9.32" y="198.43" width="9.31" height="9.02"/><rect class="cls-1" x="9.32" y="189.41" width="9.31" height="9.02"/><rect class="cls-1" x="9.32" y="180.39" width="9.31" height="9.02"/><rect class="cls-1" x="9.32" y="171.37" width="9.31" height="9.02"/><rect class="cls-1" x="9.32" y="162.35" width="9.31" height="9.02"/><rect class="cls-1" x="9.32" y="153.33" width="9.31" height="9.02"/><rect class="cls-1" x="9.32" y="144.31" width="9.31" height="9.02"/><rect class="cls-1" y="189.41" width="9.32" height="9.02"/><rect class="cls-1" y="180.39" width="9.32" height="9.02"/><rect class="cls-1" y="171.37" width="9.32" height="9.02"/><rect class="cls-1" y="162.35" width="9.32" height="9.02"/><rect class="cls-1" y="153.33" width="9.32" height="9.02"/></svg>