<svg id="template_copy_2" data-name="template copy 2" xmlns="http://www.w3.org/2000/svg" viewBox="0 0 307.36 342.74"><defs><style>.cls-1{fill:#fff;}</style></defs><title>mush_stage0</title><rect class="cls-1" x="46.57" y="315.68" width="9.32" height="9.02"/><rect class="cls-1" x="46.57" y="324.7" width="9.32" height="9.02"/><rect class="cls-1" x="55.89" y="324.7" width="9.31" height="9.02"/><rect class="cls-1" x="65.2" y="324.7" width="9.31" height="9.02"/><rect class="cls-1" x="204.91" y="45.1" width="9.31" height="9.01"/><rect class="cls-1" x="204.91" y="36.08" width="9.31" height="9.02"/><rect class="cls-1" x="74.51" y="234.51" width="9.32" height="9.02"/><rect class="cls-1" x="74.51" y="225.49" width="9.32" height="9.02"/><rect class="cls-1" x="83.83" y="243.53" width="9.31" height="9.02"/><rect class="cls-1" x="83.83" y="234.51" width="9.31" height="9.02"/><rect class="cls-1" x="93.14" y="216.47" width="9.32" height="9.02"/><rect class="cls-1" x="93.14" y="225.49" width="9.32" height="9.02"/><rect class="cls-1" x="102.46" y="225.49" width="9.31" height="9.02"/><rect class="cls-1" x="298.04" y="189.41" width="9.32" height="9.02"/><rect class="cls-1" x="298.04" y="180.39" width="9.32" height="9.02"/><rect class="cls-1" x="298.04" y="171.37" width="9.32" height="9.02"/><rect class="cls-1" x="298.04" y="162.35" width="9.32" height="9.02"/><rect class="cls-1" x="288.73" y="225.49" width="9.31" height="9.02"/><rect class="cls-1" x="288.73" y="216.47" width="9.31" height="9.02"/><rect class="cls-1" x="288.73" y="207.45" width="9.31" height="9.02"/><rect class="cls-1" x="288.73" y="198.43" width="9.31" height="9.02"/><rect class="cls-1" x="288.73" y="189.41" width="9.31" height="9.02"/><rect class="cls-1" x="288.73" y="162.35" width="9.31" height="9.02"/><rect class="cls-1" x="288.73" y="153.33" width="9.31" height="9.02"/><rect class="cls-1" x="288.73" y="144.31" width="9.31" height="9.02"/><rect class="cls-1" x="288.73" y="135.29" width="9.31" height="9.02"/><rect class="cls-1" x="279.42" y="252.55" width="9.31" height="9.02"/><rect class="cls-1" x="279.42" y="243.53" width="9.31" height="9.02"/><rect class="cls-1" x="279.42" y="234.51" width="9.31" height="9.02"/><rect class="cls-1" x="279.42" y="225.49" width="9.31" height="9.02"/><rect class="cls-1" x="279.42" y="135.29" width="9.31" height="9.02"/><rect class="cls-1" x="279.42" y="126.27" width="9.31" height="9.02"/><rect class="cls-1" x="270.1" y="252.55" width="9.32" height="9.02"/><rect class="cls-1" x="270.1" y="243.53" width="9.32" height="9.02"/><rect class="cls-1" x="270.1" y="126.27" width="9.32" height="9.02"/><rect class="cls-1" x="270.1" y="117.25" width="9.32" height="9.02"/><rect class="cls-1" x="260.79" y="261.57" width="9.31" height="9.02"/><rect class="cls-1" x="260.79" y="117.25" width="9.31" height="9.02"/><rect class="cls-1" x="260.79" y="108.23" width="9.31" height="9.02"/><rect class="cls-1" x="260.79" y="99.21" width="9.31" height="9.02"/><rect class="cls-1" x="251.48" y="270.59" width="9.31" height="9.02"/><rect class="cls-1" x="251.48" y="261.57" width="9.31" height="9.02"/><rect class="cls-1" x="251.48" y="99.21" width="9.31" height="9.02"/><rect class="cls-1" x="251.48" y="90.19" width="9.31" height="9.02"/><rect class="cls-1" x="242.16" y="270.59" width="9.32" height="9.02"/><rect class="cls-1" x="242.16" y="90.19" width="9.32" height="9.02"/><rect class="cls-1" x="232.85" y="270.59" width="9.31" height="9.02"/><rect class="cls-1" x="232.85" y="81.17" width="9.31" height="9.02"/><rect class="cls-1" x="223.53" y="270.59" width="9.32" height="9.02"/><rect class="cls-1" x="223.53" y="81.17" width="9.32" height="9.02"/><rect class="cls-1" x="214.22" y="270.59" width="9.31" height="9.02"/><rect class="cls-1" x="214.22" y="81.17" width="9.31" height="9.02"/><rect class="cls-1" x="204.91" y="270.59" width="9.31" height="9.02"/><rect class="cls-1" x="204.91" y="81.17" width="9.31" height="9.02"/><rect class="cls-1" x="204.91" y="72.15" width="9.31" height="9.02"/><rect class="cls-1" x="204.91" y="27.06" width="9.31" height="9.02"/><rect class="cls-1" x="204.91" y="18.04" width="9.31" height="9.02"/><rect class="cls-1" x="195.59" y="270.59" width="9.32" height="9.02"/><rect class="cls-1" x="195.59" y="72.15" width="9.32" height="9.02"/><rect class="cls-1" x="195.59" y="63.13" width="9.32" height="9.02"/><rect class="cls-1" x="195.59" y="54.11" width="9.32" height="9.02"/><rect class="cls-1" x="195.59" y="45.1" width="9.32" height="9.01"/><rect class="cls-1" x="195.59" y="36.08" width="9.32" height="9.02"/><rect class="cls-1" x="195.59" y="27.06" width="9.32" height="9.02"/><rect class="cls-1" x="195.59" y="18.04" width="9.32" height="9.02"/><rect class="cls-1" x="195.59" y="9.02" width="9.32" height="9.02"/><rect class="cls-1" x="186.28" y="270.59" width="9.31" height="9.02"/><rect class="cls-1" x="186.28" y="90.19" width="9.31" height="9.02"/><rect class="cls-1" x="186.28" y="54.11" width="9.31" height="9.02"/><rect class="cls-1" x="186.28" y="45.1" width="9.31" height="9.01"/><rect class="cls-1" x="186.28" y="36.08" width="9.31" height="9.02"/><rect class="cls-1" x="186.28" y="27.06" width="9.31" height="9.02"/><rect class="cls-1" x="186.28" y="18.04" width="9.31" height="9.02"/><rect class="cls-1" x="186.28" y="9.02" width="9.31" height="9.02"/><rect class="cls-1" x="186.28" width="9.31" height="9.02"/><rect class="cls-1" x="176.97" y="270.59" width="9.31" height="9.02"/><rect class="cls-1" x="176.97" y="90.19" width="9.31" height="9.02"/><rect class="cls-1" x="176.97" y="81.17" width="9.31" height="9.02"/><rect class="cls-1" x="176.97" y="63.13" width="9.31" height="9.02"/><rect class="cls-1" x="176.97" y="54.11" width="9.31" height="9.02"/><rect class="cls-1" x="176.97" y="45.1" width="9.31" height="9.01"/><rect class="cls-1" x="176.97" y="36.08" width="9.31" height="9.02"/><rect class="cls-1" x="176.97" y="27.06" width="9.31" height="9.02"/><rect class="cls-1" x="176.97" y="18.04" width="9.31" height="9.02"/><rect class="cls-1" x="176.97" y="9.02" width="9.31" height="9.02"/><rect class="cls-1" x="176.97" width="9.31" height="9.02"/><rect class="cls-1" x="167.65" y="324.7" width="9.32" height="9.02"/><rect class="cls-1" x="167.65" y="315.68" width="9.32" height="9.02"/><rect class="cls-1" x="167.65" y="306.66" width="9.32" height="9.02"/><rect class="cls-1" x="167.65" y="297.64" width="9.32" height="9.02"/><rect class="cls-1" x="167.65" y="288.62" width="9.32" height="9.02"/><rect class="cls-1" x="167.65" y="279.61" width="9.32" height="9.01"/><rect class="cls-1" x="167.65" y="270.59" width="9.32" height="9.02"/><rect class="cls-1" x="167.65" y="261.57" width="9.32" height="9.02"/><rect class="cls-1" x="167.65" y="81.17" width="9.32" height="9.02"/><rect class="cls-1" x="167.65" y="63.13" width="9.32" height="9.02"/><rect class="cls-1" x="167.65" y="54.11" width="9.32" height="9.02"/><rect class="cls-1" x="167.65" y="45.1" width="9.32" height="9.01"/><rect class="cls-1" x="167.65" y="36.08" width="9.32" height="9.02"/><rect class="cls-1" x="167.65" y="27.06" width="9.32" height="9.02"/><rect class="cls-1" x="167.65" y="18.04" width="9.32" height="9.02"/><rect class="cls-1" x="167.65" y="9.02" width="9.32" height="9.02"/><rect class="cls-1" x="167.65" width="9.32" height="9.02"/><rect class="cls-1" x="158.34" y="324.7" width="9.31" height="9.02"/><rect class="cls-1" x="158.34" y="261.57" width="9.31" height="9.02"/><rect class="cls-1" x="158.34" y="252.55" width="9.31" height="9.02"/><rect class="cls-1" x="158.34" y="72.15" width="9.31" height="9.02"/><rect class="cls-1" x="158.34" y="63.13" width="9.31" height="9.02"/><rect class="cls-1" x="158.34" y="54.11" width="9.31" height="9.02"/><rect class="cls-1" x="158.34" y="45.1" width="9.31" height="9.01"/><rect class="cls-1" x="158.34" y="36.08" width="9.31" height="9.02"/><rect class="cls-1" x="158.34" y="27.06" width="9.31" height="9.02"/><rect class="cls-1" x="158.34" y="18.04" width="9.31" height="9.02"/><rect class="cls-1" x="158.34" y="9.02" width="9.31" height="9.02"/><rect class="cls-1" x="158.34" width="9.31" height="9.02"/><rect class="cls-1" x="149.02" y="333.72" width="9.32" height="9.02"/><rect class="cls-1" x="149.02" y="324.7" width="9.32" height="9.02"/><rect class="cls-1" x="149.02" y="252.55" width="9.32" height="9.02"/><rect class="cls-1" x="149.02" y="243.53" width="9.32" height="9.02"/><rect class="cls-1" x="149.02" y="108.23" width="9.32" height="9.02"/><rect class="cls-1" x="149.02" y="99.21" width="9.32" height="9.02"/><rect class="cls-1" x="149.02" y="72.15" width="9.32" height="9.02"/><rect class="cls-1" x="149.02" y="63.13" width="9.32" height="9.02"/><rect class="cls-1" x="149.02" y="54.11" width="9.32" height="9.02"/><rect class="cls-1" x="149.02" y="45.1" width="9.32" height="9.01"/><rect class="cls-1" x="149.02" y="36.08" width="9.32" height="9.02"/><rect class="cls-1" x="149.02" y="27.06" width="9.32" height="9.02"/><rect class="cls-1" x="149.02" y="18.04" width="9.32" height="9.02"/><rect class="cls-1" x="149.02" y="9.02" width="9.32" height="9.02"/><rect class="cls-1" x="149.02" width="9.32" height="9.02"/><rect class="cls-1" x="139.71" y="333.72" width="9.31" height="9.02"/><rect class="cls-1" x="139.71" y="243.53" width="9.31" height="9.02"/><rect class="cls-1" x="139.71" y="234.51" width="9.31" height="9.02"/><rect class="cls-1" x="139.71" y="225.49" width="9.31" height="9.02"/><rect class="cls-1" x="139.71" y="90.19" width="9.31" height="9.02"/><rect class="cls-1" x="139.71" y="81.17" width="9.31" height="9.02"/><rect class="cls-1" x="139.71" y="72.15" width="9.31" height="9.02"/><rect class="cls-1" x="139.71" y="63.13" width="9.31" height="9.02"/><rect class="cls-1" x="139.71" y="54.11" width="9.31" height="9.02"/><rect class="cls-1" x="139.71" y="45.1" width="9.31" height="9.01"/><rect class="cls-1" x="139.71" y="36.08" width="9.31" height="9.02"/><rect class="cls-1" x="139.71" y="27.06" width="9.31" height="9.02"/><rect class="cls-1" x="139.71" y="18.04" width="9.31" height="9.02"/><rect class="cls-1" x="139.71" y="9.02" width="9.31" height="9.02"/><rect class="cls-1" x="139.71" width="9.31" height="9.02"/><rect class="cls-1" x="130.4" y="333.72" width="9.31" height="9.02"/><rect class="cls-1" x="130.4" y="225.49" width="9.31" height="9.02"/><rect class="cls-1" x="130.4" y="216.47" width="9.31" height="9.02"/><rect class="cls-1" x="130.4" y="81.17" width="9.31" height="9.02"/><rect class="cls-1" x="130.4" y="72.15" width="9.31" height="9.02"/><rect class="cls-1" x="130.4" y="63.13" width="9.31" height="9.02"/><rect class="cls-1" x="130.4" y="54.11" width="9.31" height="9.02"/><rect class="cls-1" x="130.4" y="45.1" width="9.31" height="9.01"/><rect class="cls-1" x="130.4" y="36.08" width="9.31" height="9.02"/><rect class="cls-1" x="130.4" y="27.06" width="9.31" height="9.02"/><rect class="cls-1" x="130.4" y="18.04" width="9.31" height="9.02"/><rect class="cls-1" x="130.4" y="9.02" width="9.31" height="9.02"/><rect class="cls-1" x="130.4" width="9.31" height="9.02"/><rect class="cls-1" x="121.08" y="333.72" width="9.32" height="9.02"/><rect class="cls-1" x="121.08" y="216.47" width="9.32" height="9.02"/><rect class="cls-1" x="121.08" y="207.45" width="9.32" height="9.02"/><rect class="cls-1" x="121.08" y="81.17" width="9.32" height="9.02"/><rect class="cls-1" x="121.08" y="72.15" width="9.32" height="9.02"/><rect class="cls-1" x="121.08" y="63.13" width="9.32" height="9.02"/><rect class="cls-1" x="121.08" y="54.11" width="9.32" height="9.02"/><rect class="cls-1" x="121.08" y="45.1" width="9.32" height="9.01"/><rect class="cls-1" x="121.08" y="36.08" width="9.32" height="9.02"/><rect class="cls-1" x="121.08" y="27.06" width="9.32" height="9.02"/><rect class="cls-1" x="121.08" y="18.04" width="9.32" height="9.02"/><rect class="cls-1" x="121.08" y="9.02" width="9.32" height="9.02"/><rect class="cls-1" x="121.08" width="9.32" height="9.02"/><rect class="cls-1" x="111.77" y="333.72" width="9.31" height="9.02"/><rect class="cls-1" x="111.77" y="207.45" width="9.31" height="9.02"/><rect class="cls-1" x="111.77" y="198.43" width="9.31" height="9.02"/><rect class="cls-1" x="111.77" y="189.41" width="9.31" height="9.02"/><rect class="cls-1" x="111.77" y="180.39" width="9.31" height="9.02"/><rect class="cls-1" x="111.77" y="171.37" width="9.31" height="9.02"/><rect class="cls-1" x="111.77" y="162.35" width="9.31" height="9.02"/><rect class="cls-1" x="111.77" y="153.33" width="9.31" height="9.02"/><rect class="cls-1" x="111.77" y="144.31" width="9.31" height="9.02"/><rect class="cls-1" x="111.77" y="135.29" width="9.31" height="9.02"/><rect class="cls-1" x="111.77" y="126.27" width="9.31" height="9.02"/><rect class="cls-1" x="111.77" y="117.25" width="9.31" height="9.02"/><rect class="cls-1" x="111.77" y="108.23" width="9.31" height="9.02"/><rect class="cls-1" x="111.77" y="99.21" width="9.31" height="9.02"/><rect class="cls-1" x="111.77" y="90.19" width="9.31" height="9.02"/><rect class="cls-1" x="111.77" y="81.17" width="9.31" height="9.02"/><rect class="cls-1" x="111.77" y="72.15" width="9.31" height="9.02"/><rect class="cls-1" x="111.77" y="63.13" width="9.31" height="9.02"/><rect class="cls-1" x="111.77" y="54.11" width="9.31" height="9.02"/><rect class="cls-1" x="111.77" y="45.1" width="9.31" height="9.01"/><rect class="cls-1" x="111.77" y="36.08" width="9.31" height="9.02"/><rect class="cls-1" x="111.77" y="27.06" width="9.31" height="9.02"/><rect class="cls-1" x="111.77" y="18.04" width="9.31" height="9.02"/><rect class="cls-1" x="111.77" y="9.02" width="9.31" height="9.02"/><rect class="cls-1" x="111.77" width="9.31" height="9.02"/><rect class="cls-1" x="102.46" y="333.72" width="9.31" height="9.02"/><rect class="cls-1" x="102.46" y="198.43" width="9.31" height="9.02"/><rect class="cls-1" x="102.46" y="189.41" width="9.31" height="9.02"/><rect class="cls-1" x="102.46" y="180.39" width="9.31" height="9.02"/><rect class="cls-1" x="102.46" y="90.19" width="9.31" height="9.02"/><rect class="cls-1" x="102.46" y="81.17" width="9.31" height="9.02"/><rect class="cls-1" x="102.46" y="72.15" width="9.31" height="9.02"/><rect class="cls-1" x="102.46" y="63.13" width="9.31" height="9.02"/><rect class="cls-1" x="102.46" y="54.11" width="9.31" height="9.02"/><rect class="cls-1" x="102.46" y="45.1" width="9.31" height="9.01"/><rect class="cls-1" x="102.46" y="36.08" width="9.31" height="9.02"/><rect class="cls-1" x="102.46" y="27.06" width="9.31" height="9.02"/><rect class="cls-1" x="102.46" y="18.04" width="9.31" height="9.02"/><rect class="cls-1" x="102.46" y="9.02" width="9.31" height="9.02"/><rect class="cls-1" x="93.14" y="333.72" width="9.32" height="9.02"/><rect class="cls-1" x="93.14" y="207.45" width="9.32" height="9.02"/><rect class="cls-1" x="93.14" y="198.43" width="9.32" height="9.02"/><rect class="cls-1" x="93.14" y="189.41" width="9.32" height="9.02"/><rect class="cls-1" x="93.14" y="180.39" width="9.32" height="9.02"/><rect class="cls-1" x="93.14" y="171.37" width="9.32" height="9.02"/><rect class="cls-1" x="93.14" y="81.17" width="9.32" height="9.02"/><rect class="cls-1" x="93.14" y="72.15" width="9.32" height="9.02"/><rect class="cls-1" x="93.14" y="63.13" width="9.32" height="9.02"/><rect class="cls-1" x="93.14" y="54.11" width="9.32" height="9.02"/><rect class="cls-1" x="93.14" y="45.1" width="9.32" height="9.01"/><rect class="cls-1" x="93.14" y="36.08" width="9.32" height="9.02"/><rect class="cls-1" x="93.14" y="27.06" width="9.32" height="9.02"/><rect class="cls-1" x="93.14" y="18.04" width="9.32" height="9.02"/><rect class="cls-1" x="93.14" y="9.02" width="9.32" height="9.02"/><rect class="cls-1" x="83.83" y="333.72" width="9.31" height="9.02"/><rect class="cls-1" x="83.83" y="216.47" width="9.31" height="9.02"/><rect class="cls-1" x="83.83" y="207.45" width="9.31" height="9.02"/><rect class="cls-1" x="83.83" y="198.43" width="9.31" height="9.02"/><rect class="cls-1" x="83.83" y="189.41" width="9.31" height="9.02"/><rect class="cls-1" x="83.83" y="180.39" width="9.31" height="9.02"/><rect class="cls-1" x="83.83" y="171.37" width="9.31" height="9.02"/><rect class="cls-1" x="83.83" y="162.35" width="9.31" height="9.02"/><rect class="cls-1" x="83.83" y="81.17" width="9.31" height="9.02"/><rect class="cls-1" x="83.83" y="72.15" width="9.31" height="9.02"/><rect class="cls-1" x="83.83" y="63.13" width="9.31" height="9.02"/><rect class="cls-1" x="83.83" y="54.11" width="9.31" height="9.02"/><rect class="cls-1" x="83.83" y="45.1" width="9.31" height="9.01"/><rect class="cls-1" x="83.83" y="36.08" width="9.31" height="9.02"/><rect class="cls-1" x="83.83" y="27.06" width="9.31" height="9.02"/><rect class="cls-1" x="83.83" y="18.04" width="9.31" height="9.02"/><rect class="cls-1" x="74.51" y="333.72" width="9.32" height="9.02"/><rect class="cls-1" x="74.51" y="216.47" width="9.32" height="9.02"/><rect class="cls-1" x="74.51" y="207.45" width="9.32" height="9.02"/><rect class="cls-1" x="74.51" y="198.43" width="9.32" height="9.02"/><rect class="cls-1" x="74.51" y="189.41" width="9.32" height="9.02"/><rect class="cls-1" x="74.51" y="180.39" width="9.32" height="9.02"/><rect class="cls-1" x="74.51" y="171.37" width="9.32" height="9.02"/><rect class="cls-1" x="74.51" y="162.35" width="9.32" height="9.02"/><rect class="cls-1" x="74.51" y="81.17" width="9.32" height="9.02"/><rect class="cls-1" x="74.51" y="72.15" width="9.32" height="9.02"/><rect class="cls-1" x="74.51" y="63.13" width="9.32" height="9.02"/><rect class="cls-1" x="74.51" y="54.11" width="9.32" height="9.02"/><rect class="cls-1" x="74.51" y="45.1" width="9.32" height="9.01"/><rect class="cls-1" x="74.51" y="36.08" width="9.32" height="9.02"/><rect class="cls-1" x="74.51" y="27.06" width="9.32" height="9.02"/><rect class="cls-1" x="74.51" y="18.04" width="9.32" height="9.02"/><rect class="cls-1" x="65.2" y="225.49" width="9.31" height="9.02"/><rect class="cls-1" x="65.2" y="216.47" width="9.31" height="9.02"/><rect class="cls-1" x="65.2" y="207.45" width="9.31" height="9.02"/><rect class="cls-1" x="65.2" y="198.43" width="9.31" height="9.02"/><rect class="cls-1" x="65.2" y="189.41" width="9.31" height="9.02"/><rect class="cls-1" x="65.2" y="180.39" width="9.31" height="9.02"/><rect class="cls-1" x="65.2" y="171.37" width="9.31" height="9.02"/><rect class="cls-1" x="65.2" y="162.35" width="9.31" height="9.02"/><rect class="cls-1" x="65.2" y="81.17" width="9.31" height="9.02"/><rect class="cls-1" x="65.2" y="72.15" width="9.31" height="9.02"/><rect class="cls-1" x="65.2" y="63.13" width="9.31" height="9.02"/><rect class="cls-1" x="65.2" y="54.11" width="9.31" height="9.02"/><rect class="cls-1" x="65.2" y="45.1" width="9.31" height="9.01"/><rect class="cls-1" x="65.2" y="36.08" width="9.31" height="9.02"/><rect class="cls-1" x="65.2" y="27.06" width="9.31" height="9.02"/><rect class="cls-1" x="55.89" y="243.53" width="9.31" height="9.02"/><rect class="cls-1" x="55.89" y="234.51" width="9.31" height="9.02"/><rect class="cls-1" x="55.89" y="225.49" width="9.31" height="9.02"/><rect class="cls-1" x="55.89" y="216.47" width="9.31" height="9.02"/><rect class="cls-1" x="55.89" y="207.45" width="9.31" height="9.02"/><rect class="cls-1" x="55.89" y="198.43" width="9.31" height="9.02"/><rect class="cls-1" x="55.89" y="189.41" width="9.31" height="9.02"/><rect class="cls-1" x="55.89" y="180.39" width="9.31" height="9.02"/><rect class="cls-1" x="55.89" y="171.37" width="9.31" height="9.02"/><rect class="cls-1" x="55.89" y="162.35" width="9.31" height="9.02"/><rect class="cls-1" x="55.89" y="72.15" width="9.31" height="9.02"/><rect class="cls-1" x="55.89" y="63.13" width="9.31" height="9.02"/><rect class="cls-1" x="55.89" y="54.11" width="9.31" height="9.02"/><rect class="cls-1" x="55.89" y="45.1" width="9.31" height="9.01"/><rect class="cls-1" x="55.89" y="36.08" width="9.31" height="9.02"/><rect class="cls-1" x="46.57" y="306.66" width="9.32" height="9.02"/><rect class="cls-1" x="46.57" y="225.49" width="9.32" height="9.02"/><rect class="cls-1" x="46.57" y="216.47" width="9.32" height="9.02"/><rect class="cls-1" x="46.57" y="207.45" width="9.32" height="9.02"/><rect class="cls-1" x="46.57" y="198.43" width="9.32" height="9.02"/><rect class="cls-1" x="46.57" y="189.41" width="9.32" height="9.02"/><rect class="cls-1" x="46.57" y="180.39" width="9.32" height="9.02"/><rect class="cls-1" x="46.57" y="171.37" width="9.32" height="9.02"/><rect class="cls-1" x="46.57" y="162.35" width="9.32" height="9.02"/><rect class="cls-1" x="46.57" y="63.13" width="9.32" height="9.02"/><rect class="cls-1" x="46.57" y="54.11" width="9.32" height="9.02"/><rect class="cls-1" x="46.57" y="45.1" width="9.32" height="9.01"/><rect class="cls-1" x="37.26" y="306.66" width="9.31" height="9.02"/><rect class="cls-1" x="37.26" y="297.64" width="9.31" height="9.02"/><rect class="cls-1" x="37.26" y="288.62" width="9.31" height="9.02"/><rect class="cls-1" x="37.26" y="279.61" width="9.31" height="9.01"/><rect class="cls-1" x="37.26" y="270.59" width="9.31" height="9.02"/><rect class="cls-1" x="37.26" y="261.57" width="9.31" height="9.02"/><rect class="cls-1" x="37.26" y="252.55" width="9.31" height="9.02"/><rect class="cls-1" x="37.26" y="243.53" width="9.31" height="9.02"/><rect class="cls-1" x="37.26" y="234.51" width="9.31" height="9.02"/><rect class="cls-1" x="37.26" y="225.49" width="9.31" height="9.02"/><rect class="cls-1" x="37.26" y="216.47" width="9.31" height="9.02"/><rect class="cls-1" x="37.26" y="207.45" width="9.31" height="9.02"/><rect class="cls-1" x="37.26" y="198.43" width="9.31" height="9.02"/><rect class="cls-1" x="37.26" y="189.41" width="9.31" height="9.02"/><rect class="cls-1" x="37.26" y="180.39" width="9.31" height="9.02"/><rect class="cls-1" x="37.26" y="171.37" width="9.31" height="9.02"/><rect class="cls-1" x="37.26" y="162.35" width="9.31" height="9.02"/><rect class="cls-1" x="27.95" y="234.51" width="9.31" height="9.02"/><rect class="cls-1" x="27.95" y="225.49" width="9.31" height="9.02"/><rect class="cls-1" x="27.95" y="216.47" width="9.31" height="9.02"/><rect class="cls-1" x="27.95" y="207.45" width="9.31" height="9.02"/><rect class="cls-1" x="27.95" y="198.43" width="9.31" height="9.02"/><rect class="cls-1" x="27.95" y="189.41" width="9.31" height="9.02"/><rect class="cls-1" x="27.95" y="180.39" width="9.31" height="9.02"/><rect class="cls-1" x="27.95" y="171.37" width="9.31" height="9.02"/><rect class="cls-1" x="18.63" y="234.51" width="9.32" height="9.02"/><rect class="cls-1" x="18.63" y="225.49" width="9.32" height="9.02"/><rect class="cls-1" x="18.63" y="216.47" width="9.32" height="9.02"/><rect class="cls-1" x="18.63" y="207.45" width="9.32" height="9.02"/><rect class="cls-1" x="18.63" y="198.43" width="9.32" height="9.02"/><rect class="cls-1" x="18.63" y="189.41" width="9.32" height="9.02"/><rect class="cls-1" x="18.63" y="180.39" width="9.32" height="9.02"/><rect class="cls-1" x="9.32" y="225.49" width="9.31" height="9.02"/><rect class="cls-1" x="9.32" y="216.47" width="9.31" height="9.02"/><rect class="cls-1" x="9.32" y="207.45" width="9.31" height="9.02"/><rect class="cls-1" x="9.32" y="198.43" width="9.31" height="9.02"/><rect class="cls-1" x="9.32" y="189.41" width="9.31" height="9.02"/><rect class="cls-1" x="9.32" y="180.39" width="9.31" height="9.02"/><rect class="cls-1" y="216.47" width="9.32" height="9.02"/><rect class="cls-1" y="207.45" width="9.32" height="9.02"/><rect class="cls-1" y="198.43" width="9.32" height="9.02"/><rect class="cls-1" y="189.41" width="9.32" height="9.02"/></svg>