<svg id="template_copy_7" data-name="template copy 7" xmlns="http://www.w3.org/2000/svg" viewBox="0 0 363.24 450.98"><defs><style>.cls-1{fill:#fff;}</style></defs><title>mush_stage4</title><rect class="cls-1" x="130.39" y="279.61" width="9.32" height="9.02"/><rect class="cls-1" x="130.39" y="270.59" width="9.32" height="9.02"/><rect class="cls-1" x="130.39" y="252.55" width="9.32" height="9.02"/><rect class="cls-1" x="130.39" y="288.63" width="9.32" height="9.02"/><rect class="cls-1" x="130.39" y="297.65" width="9.32" height="9.02"/><rect class="cls-1" x="130.39" y="261.57" width="9.32" height="9.02"/><rect class="cls-1" x="139.71" y="252.55" width="9.31" height="9.02"/><rect class="cls-1" x="139.71" y="243.53" width="9.31" height="9.02"/><rect class="cls-1" x="55.88" y="225.49" width="9.32" height="9.02"/><rect class="cls-1" x="55.88" y="216.47" width="9.32" height="9.02"/><rect class="cls-1" x="65.2" y="234.51" width="9.31" height="9.02"/><rect class="cls-1" x="74.51" y="234.51" width="9.31" height="9.02"/><rect class="cls-1" x="74.51" y="243.53" width="9.31" height="9.02"/><rect class="cls-1" x="65.2" y="225.49" width="9.31" height="9.02"/><rect class="cls-1" x="74.51" y="252.55" width="9.31" height="9.02"/><rect class="cls-1" x="93.14" y="270.59" width="9.31" height="9.02"/><rect class="cls-1" x="83.82" y="270.59" width="9.32" height="9.02"/><rect class="cls-1" x="83.82" y="261.57" width="9.32" height="9.02"/><rect class="cls-1" x="83.82" y="252.55" width="9.32" height="9.02"/><rect class="cls-1" x="93.14" y="279.61" width="9.31" height="9.02"/><rect class="cls-1" x="102.45" y="279.61" width="9.31" height="9.02"/><rect class="cls-1" x="46.57" y="216.47" width="9.31" height="9.02"/><rect class="cls-1" x="37.25" y="216.47" width="9.32" height="9.02"/><rect class="cls-1" x="204.9" y="90.2" width="9.32" height="9.02"/><rect class="cls-1" x="204.9" y="54.12" width="9.32" height="9.02"/><rect class="cls-1" x="195.59" y="45.1" width="9.31" height="9.02"/><rect class="cls-1" x="195.59" y="18.04" width="9.31" height="9.02"/><rect class="cls-1" x="204.9" y="63.14" width="9.32" height="9.02"/><rect class="cls-1" x="195.59" y="27.06" width="9.31" height="9.02"/><rect class="cls-1" x="195.59" y="36.08" width="9.31" height="9.02"/><rect class="cls-1" x="195.59" y="54.12" width="9.31" height="9.02"/><rect class="cls-1" x="204.9" y="72.16" width="9.32" height="9.02"/><rect class="cls-1" x="204.9" y="81.18" width="9.32" height="9.02"/><rect class="cls-1" x="195.59" y="9.02" width="9.31" height="9.02"/><rect class="cls-1" x="93.14" y="36.08" width="9.31" height="9.02"/><rect class="cls-1" x="93.14" y="18.04" width="9.31" height="9.02"/><rect class="cls-1" x="93.14" y="27.06" width="9.31" height="9.02"/><rect class="cls-1" x="121.08" y="63.14" width="9.31" height="9.02"/><rect class="cls-1" x="111.76" y="54.12" width="9.32" height="9.02"/><rect class="cls-1" x="102.45" y="45.1" width="9.31" height="9.02"/><rect class="cls-1" x="121.08" y="81.18" width="9.31" height="9.02"/><rect class="cls-1" x="102.45" y="36.08" width="9.31" height="9.02"/><rect class="cls-1" x="121.08" y="72.16" width="9.31" height="9.02"/><rect class="cls-1" x="102.45" y="54.12" width="9.31" height="9.02"/><rect class="cls-1" x="111.76" y="63.14" width="9.32" height="9.02"/><rect class="cls-1" x="130.39" y="81.18" width="9.32" height="9.02"/><rect class="cls-1" x="130.39" y="90.2" width="9.32" height="9.02"/><rect class="cls-1" x="158.33" y="108.24" width="9.32" height="9.01"/><rect class="cls-1" x="158.33" y="117.25" width="9.32" height="9.02"/><rect class="cls-1" x="176.96" y="153.33" width="9.31" height="9.02"/><rect class="cls-1" x="176.96" y="135.29" width="9.31" height="9.02"/><rect class="cls-1" x="176.96" y="144.31" width="9.31" height="9.02"/><rect class="cls-1" x="139.71" y="99.22" width="9.31" height="9.02"/><rect class="cls-1" x="139.71" y="90.2" width="9.31" height="9.02"/><rect class="cls-1" x="167.65" y="117.25" width="9.31" height="9.02"/><rect class="cls-1" x="167.65" y="126.27" width="9.31" height="9.02"/><rect class="cls-1" x="167.65" y="135.29" width="9.31" height="9.02"/><rect class="cls-1" x="149.02" y="108.24" width="9.31" height="9.01"/><rect class="cls-1" x="149.02" y="99.22" width="9.31" height="9.02"/><rect class="cls-1" x="251.47" y="90.2" width="9.31" height="9.02"/><rect class="cls-1" x="260.78" y="90.2" width="9.32" height="9.02"/><rect class="cls-1" x="260.78" y="81.18" width="9.32" height="9.02"/><rect class="cls-1" x="270.1" y="81.18" width="9.31" height="9.02"/><rect class="cls-1" x="251.47" y="99.22" width="9.31" height="9.02"/><rect class="cls-1" x="298.04" y="54.12" width="9.31" height="9.02"/><rect class="cls-1" x="288.73" y="72.16" width="9.31" height="9.02"/><rect class="cls-1" x="279.41" y="81.18" width="9.32" height="9.02"/><rect class="cls-1" x="298.04" y="63.14" width="9.31" height="9.02"/><rect class="cls-1" x="279.41" y="72.16" width="9.32" height="9.02"/><rect class="cls-1" x="298.04" y="45.1" width="9.31" height="9.02"/><rect class="cls-1" x="288.73" y="63.14" width="9.31" height="9.02"/><rect class="cls-1" x="242.16" y="99.22" width="9.31" height="9.02"/><rect class="cls-1" x="307.35" y="27.06" width="9.32" height="9.02"/><rect class="cls-1" x="307.35" y="36.08" width="9.32" height="9.02"/><rect class="cls-1" x="307.35" y="45.1" width="9.32" height="9.02"/><rect class="cls-1" x="111.76" y="333.73" width="9.32" height="9.02"/><rect class="cls-1" x="102.45" y="342.75" width="9.31" height="9.01"/><rect class="cls-1" x="111.76" y="342.75" width="9.32" height="9.01"/><rect class="cls-1" x="121.08" y="333.73" width="9.31" height="9.02"/><rect class="cls-1" x="130.39" y="333.73" width="9.32" height="9.02"/><rect class="cls-1" x="139.71" y="333.73" width="9.31" height="9.02"/><rect class="cls-1" x="139.71" y="324.71" width="9.31" height="9.02"/><rect class="cls-1" x="251.47" y="414.9" width="9.31" height="9.02"/><rect class="cls-1" x="260.78" y="414.9" width="9.32" height="9.02"/><rect class="cls-1" x="270.1" y="414.9" width="9.31" height="9.02"/><rect class="cls-1" x="279.41" y="414.9" width="9.32" height="9.02"/><rect class="cls-1" x="288.73" y="405.88" width="9.31" height="9.02"/><rect class="cls-1" x="279.41" y="405.88" width="9.32" height="9.02"/><rect class="cls-1" x="232.84" y="414.9" width="9.32" height="9.02"/><rect class="cls-1" x="242.16" y="414.9" width="9.31" height="9.02"/><rect class="cls-1" x="223.53" y="414.9" width="9.31" height="9.02"/><rect class="cls-1" x="93.14" y="351.76" width="9.31" height="9.02"/><rect class="cls-1" x="93.14" y="378.82" width="9.31" height="9.02"/><rect class="cls-1" x="93.14" y="369.8" width="9.31" height="9.02"/><rect class="cls-1" x="93.14" y="360.78" width="9.31" height="9.02"/><rect class="cls-1" x="93.14" y="387.84" width="9.31" height="9.02"/><rect class="cls-1" x="102.45" y="387.84" width="9.31" height="9.02"/><rect class="cls-1" x="111.76" y="405.88" width="9.32" height="9.02"/><rect class="cls-1" x="111.76" y="414.9" width="9.32" height="9.02"/><rect class="cls-1" x="102.45" y="396.86" width="9.31" height="9.02"/><rect class="cls-1" x="102.45" y="405.88" width="9.31" height="9.02"/><rect class="cls-1" x="121.08" y="423.92" width="9.31" height="9.02"/><rect class="cls-1" x="121.08" y="414.9" width="9.31" height="9.02"/><rect class="cls-1" x="149.02" y="432.94" width="9.31" height="9.02"/><rect class="cls-1" x="186.27" y="441.96" width="9.32" height="9.02"/><rect class="cls-1" x="195.59" y="432.94" width="9.31" height="9.02"/><rect class="cls-1" x="195.59" y="441.96" width="9.31" height="9.02"/><rect class="cls-1" x="176.96" y="441.96" width="9.31" height="9.02"/><rect class="cls-1" x="167.65" y="432.94" width="9.31" height="9.02"/><rect class="cls-1" x="158.33" y="432.94" width="9.32" height="9.02"/><rect class="cls-1" x="130.39" y="423.92" width="9.32" height="9.02"/><rect class="cls-1" x="139.71" y="432.94" width="9.31" height="9.02"/><rect class="cls-1" x="139.71" y="423.92" width="9.31" height="9.02"/><rect class="cls-1" x="214.22" y="423.92" width="9.31" height="9.02"/><rect class="cls-1" x="186.27" y="369.8" width="9.32" height="9.02"/><rect class="cls-1" x="214.22" y="396.86" width="9.31" height="9.02"/><rect class="cls-1" x="214.22" y="414.9" width="9.31" height="9.02"/><rect class="cls-1" x="204.9" y="423.92" width="9.32" height="9.02"/><rect class="cls-1" x="204.9" y="396.86" width="9.32" height="9.02"/><rect class="cls-1" x="204.9" y="378.82" width="9.32" height="9.02"/><rect class="cls-1" x="195.59" y="378.82" width="9.31" height="9.02"/><rect class="cls-1" x="204.9" y="432.94" width="9.32" height="9.02"/><rect class="cls-1" x="204.9" y="387.84" width="9.32" height="9.02"/><rect class="cls-1" x="214.22" y="405.88" width="9.31" height="9.02"/><rect class="cls-1" x="195.59" y="369.8" width="9.31" height="9.02"/><rect class="cls-1" x="176.96" y="369.8" width="9.31" height="9.02"/><rect class="cls-1" x="167.65" y="351.76" width="9.31" height="9.02"/><rect class="cls-1" x="176.96" y="360.78" width="9.31" height="9.02"/><rect class="cls-1" x="167.65" y="360.78" width="9.31" height="9.02"/><rect class="cls-1" x="158.33" y="342.75" width="9.32" height="9.01"/><rect class="cls-1" x="55.88" y="270.59" width="9.32" height="9.02"/><rect class="cls-1" x="55.88" y="279.61" width="9.32" height="9.02"/><rect class="cls-1" x="74.51" y="306.67" width="9.31" height="9.02"/><rect class="cls-1" x="65.2" y="279.61" width="9.31" height="9.02"/><rect class="cls-1" x="65.2" y="288.63" width="9.31" height="9.02"/><rect class="cls-1" x="74.51" y="288.63" width="9.31" height="9.02"/><rect class="cls-1" x="74.51" y="297.65" width="9.31" height="9.02"/><rect class="cls-1" x="93.14" y="333.73" width="9.31" height="9.02"/><rect class="cls-1" x="83.82" y="306.67" width="9.32" height="9.02"/><rect class="cls-1" x="83.82" y="315.69" width="9.32" height="9.02"/><rect class="cls-1" x="93.14" y="342.75" width="9.31" height="9.01"/><rect class="cls-1" x="83.82" y="324.71" width="9.32" height="9.02"/><rect class="cls-1" x="93.14" y="324.71" width="9.31" height="9.02"/><rect class="cls-1" x="9.31" y="234.51" width="9.32" height="9.02"/><rect class="cls-1" y="216.47" width="9.31" height="9.02"/><rect class="cls-1" x="9.31" y="225.49" width="9.32" height="9.02"/><rect class="cls-1" y="207.45" width="9.31" height="9.02"/><rect class="cls-1" y="225.49" width="9.31" height="9.02"/><rect class="cls-1" x="46.57" y="261.57" width="9.31" height="9.02"/><rect class="cls-1" x="46.57" y="270.59" width="9.31" height="9.02"/><rect class="cls-1" x="27.94" y="243.53" width="9.31" height="9.02"/><rect class="cls-1" x="27.94" y="252.55" width="9.31" height="9.02"/><rect class="cls-1" x="37.25" y="252.55" width="9.32" height="9.02"/><rect class="cls-1" x="37.25" y="261.57" width="9.32" height="9.02"/><rect class="cls-1" x="18.63" y="243.53" width="9.31" height="9.02"/><rect class="cls-1" x="18.63" y="234.51" width="9.31" height="9.02"/><rect class="cls-1" x="55.88" y="207.45" width="9.32" height="9.02"/><rect class="cls-1" x="74.51" y="207.45" width="9.31" height="9.02"/><rect class="cls-1" x="65.2" y="207.45" width="9.31" height="9.02"/><rect class="cls-1" x="93.14" y="216.47" width="9.31" height="9.02"/><rect class="cls-1" x="93.14" y="207.45" width="9.31" height="9.02"/><rect class="cls-1" x="83.82" y="207.45" width="9.32" height="9.02"/><rect class="cls-1" x="111.76" y="225.49" width="9.32" height="9.02"/><rect class="cls-1" x="111.76" y="216.47" width="9.32" height="9.02"/><rect class="cls-1" x="102.45" y="216.47" width="9.31" height="9.02"/><rect class="cls-1" x="121.08" y="225.49" width="9.31" height="9.02"/><rect class="cls-1" x="149.02" y="315.69" width="9.31" height="9.02"/><rect class="cls-1" x="130.39" y="234.51" width="9.32" height="9.02"/><rect class="cls-1" x="149.02" y="333.73" width="9.31" height="9.02"/><rect class="cls-1" x="149.02" y="306.67" width="9.31" height="9.02"/><rect class="cls-1" x="149.02" y="324.71" width="9.31" height="9.02"/><rect class="cls-1" x="149.02" y="243.53" width="9.31" height="9.02"/><rect class="cls-1" x="130.39" y="225.49" width="9.32" height="9.02"/><rect class="cls-1" x="186.27" y="252.55" width="9.32" height="9.02"/><rect class="cls-1" x="186.27" y="261.57" width="9.32" height="9.02"/><rect class="cls-1" x="186.27" y="279.61" width="9.32" height="9.02"/><rect class="cls-1" x="186.27" y="270.59" width="9.32" height="9.02"/><rect class="cls-1" x="176.96" y="243.53" width="9.31" height="9.02"/><rect class="cls-1" x="176.96" y="252.55" width="9.31" height="9.02"/><rect class="cls-1" x="176.96" y="279.61" width="9.31" height="9.02"/><rect class="cls-1" x="167.65" y="288.63" width="9.31" height="9.02"/><rect class="cls-1" x="176.96" y="288.63" width="9.31" height="9.02"/><rect class="cls-1" x="167.65" y="243.53" width="9.31" height="9.02"/><rect class="cls-1" x="158.33" y="243.53" width="9.32" height="9.02"/><rect class="cls-1" x="158.33" y="297.65" width="9.32" height="9.02"/><rect class="cls-1" x="158.33" y="333.73" width="9.32" height="9.02"/><rect class="cls-1" x="158.33" y="288.63" width="9.32" height="9.02"/><rect class="cls-1" x="158.33" y="306.67" width="9.32" height="9.02"/><rect class="cls-1" x="9.31" y="207.45" width="9.32" height="9.02"/><rect class="cls-1" x="46.57" y="207.45" width="9.31" height="9.02"/><rect class="cls-1" x="27.94" y="207.45" width="9.31" height="9.02"/><rect class="cls-1" x="37.25" y="207.45" width="9.32" height="9.02"/><rect class="cls-1" x="18.63" y="207.45" width="9.31" height="9.02"/><rect class="cls-1" x="139.71" y="234.51" width="9.31" height="9.02"/><rect class="cls-1" x="223.53" y="207.45" width="9.31" height="9.02"/><rect class="cls-1" x="186.27" y="216.47" width="9.32" height="9.02"/><rect class="cls-1" x="195.59" y="216.47" width="9.31" height="9.02"/><rect class="cls-1" x="214.22" y="207.45" width="9.31" height="9.02"/><rect class="cls-1" x="204.9" y="216.47" width="9.32" height="9.02"/><rect class="cls-1" x="204.9" y="207.45" width="9.32" height="9.02"/><rect class="cls-1" x="176.96" y="207.45" width="9.31" height="9.02"/><rect class="cls-1" x="176.96" y="216.47" width="9.31" height="9.02"/><rect class="cls-1" x="167.65" y="207.45" width="9.31" height="9.02"/><rect class="cls-1" x="158.33" y="216.47" width="9.32" height="9.02"/><rect class="cls-1" x="149.02" y="216.47" width="9.31" height="9.02"/><rect class="cls-1" x="149.02" y="234.51" width="9.31" height="9.02"/><rect class="cls-1" x="149.02" y="225.49" width="9.31" height="9.02"/><rect class="cls-1" x="298.04" y="306.67" width="9.31" height="9.02"/><rect class="cls-1" x="298.04" y="378.82" width="9.31" height="9.02"/><rect class="cls-1" x="298.04" y="297.65" width="9.31" height="9.02"/><rect class="cls-1" x="298.04" y="315.69" width="9.31" height="9.02"/><rect class="cls-1" x="298.04" y="324.71" width="9.31" height="9.02"/><rect class="cls-1" x="298.04" y="360.78" width="9.31" height="9.02"/><rect class="cls-1" x="298.04" y="369.8" width="9.31" height="9.02"/><rect class="cls-1" x="307.35" y="351.76" width="9.32" height="9.02"/><rect class="cls-1" x="307.35" y="333.73" width="9.32" height="9.02"/><rect class="cls-1" x="307.35" y="324.71" width="9.32" height="9.02"/><rect class="cls-1" x="307.35" y="342.75" width="9.32" height="9.01"/><rect class="cls-1" x="251.47" y="243.53" width="9.31" height="9.02"/><rect class="cls-1" x="251.47" y="234.51" width="9.31" height="9.02"/><rect class="cls-1" x="251.47" y="252.55" width="9.31" height="9.02"/><rect class="cls-1" x="260.78" y="252.55" width="9.32" height="9.02"/><rect class="cls-1" x="260.78" y="261.57" width="9.32" height="9.02"/><rect class="cls-1" x="270.1" y="261.57" width="9.31" height="9.02"/><rect class="cls-1" x="288.73" y="288.63" width="9.31" height="9.02"/><rect class="cls-1" x="288.73" y="378.82" width="9.31" height="9.02"/><rect class="cls-1" x="279.41" y="279.61" width="9.32" height="9.02"/><rect class="cls-1" x="279.41" y="270.59" width="9.32" height="9.02"/><rect class="cls-1" x="288.73" y="279.61" width="9.31" height="9.02"/><rect class="cls-1" x="270.1" y="270.59" width="9.31" height="9.02"/><rect class="cls-1" x="288.73" y="297.65" width="9.31" height="9.02"/><rect class="cls-1" x="288.73" y="387.84" width="9.31" height="9.02"/><rect class="cls-1" x="288.73" y="396.86" width="9.31" height="9.02"/><rect class="cls-1" x="232.84" y="216.47" width="9.32" height="9.02"/><rect class="cls-1" x="242.16" y="225.49" width="9.31" height="9.02"/><rect class="cls-1" x="232.84" y="225.49" width="9.32" height="9.02"/><rect class="cls-1" x="232.84" y="198.43" width="9.32" height="9.02"/><rect class="cls-1" x="242.16" y="234.51" width="9.31" height="9.02"/><rect class="cls-1" x="232.84" y="207.45" width="9.32" height="9.02"/><rect class="cls-1" x="83.82" y="99.22" width="9.32" height="9.02"/><rect class="cls-1" x="65.2" y="90.2" width="9.31" height="9.02"/><rect class="cls-1" x="83.82" y="108.24" width="9.32" height="9.01"/><rect class="cls-1" x="74.51" y="99.22" width="9.31" height="9.02"/><rect class="cls-1" x="65.2" y="99.22" width="9.31" height="9.02"/><rect class="cls-1" x="93.14" y="117.25" width="9.31" height="9.02"/><rect class="cls-1" x="93.14" y="108.24" width="9.31" height="9.01"/><rect class="cls-1" x="111.76" y="126.27" width="9.32" height="9.02"/><rect class="cls-1" x="102.45" y="117.25" width="9.31" height="9.02"/><rect class="cls-1" x="111.76" y="135.29" width="9.32" height="9.02"/><rect class="cls-1" x="111.76" y="144.31" width="9.32" height="9.02"/><rect class="cls-1" x="102.45" y="126.27" width="9.31" height="9.02"/><rect class="cls-1" x="121.08" y="144.31" width="9.31" height="9.02"/><rect class="cls-1" x="121.08" y="153.33" width="9.31" height="9.02"/><rect class="cls-1" x="130.39" y="153.33" width="9.32" height="9.02"/><rect class="cls-1" x="158.33" y="180.39" width="9.32" height="9.02"/><rect class="cls-1" x="158.33" y="198.43" width="9.32" height="9.02"/><rect class="cls-1" x="158.33" y="207.45" width="9.32" height="9.02"/><rect class="cls-1" x="158.33" y="189.41" width="9.32" height="9.02"/><rect class="cls-1" x="149.02" y="180.39" width="9.31" height="9.02"/><rect class="cls-1" x="149.02" y="171.37" width="9.31" height="9.02"/><rect class="cls-1" x="46.57" y="72.16" width="9.31" height="9.02"/><rect class="cls-1" x="46.57" y="81.18" width="9.31" height="9.02"/><rect class="cls-1" x="55.88" y="90.2" width="9.32" height="9.02"/><rect class="cls-1" x="55.88" y="81.18" width="9.32" height="9.02"/><rect class="cls-1" x="37.25" y="45.1" width="9.32" height="9.02"/><rect class="cls-1" x="37.25" y="72.16" width="9.32" height="9.02"/><rect class="cls-1" x="37.25" y="63.14" width="9.32" height="9.02"/><rect class="cls-1" x="37.25" y="54.12" width="9.32" height="9.02"/><rect class="cls-1" x="27.94" y="36.08" width="9.31" height="9.02"/><rect class="cls-1" x="27.94" y="45.1" width="9.31" height="9.02"/><rect class="cls-1" x="139.71" y="162.35" width="9.31" height="9.02"/><rect class="cls-1" x="353.92" y="90.2" width="9.32" height="9.02"/><rect class="cls-1" x="353.92" y="81.18" width="9.32" height="9.02"/><rect class="cls-1" x="353.92" y="72.16" width="9.32" height="9.02"/><rect class="cls-1" x="353.92" y="63.14" width="9.32" height="9.02"/><rect class="cls-1" x="353.92" y="54.12" width="9.32" height="9.02"/><rect class="cls-1" x="344.61" y="99.22" width="9.31" height="9.02"/><rect class="cls-1" x="344.61" y="90.2" width="9.31" height="9.02"/><rect class="cls-1" x="344.61" y="54.12" width="9.31" height="9.02"/><rect class="cls-1" x="344.61" y="45.1" width="9.31" height="9.02"/><rect class="cls-1" x="335.29" y="108.24" width="9.32" height="9.01"/><rect class="cls-1" x="335.29" y="99.22" width="9.32" height="9.02"/><rect class="cls-1" x="335.29" y="45.1" width="9.32" height="9.02"/><rect class="cls-1" x="335.29" y="36.08" width="9.32" height="9.02"/><rect class="cls-1" x="335.29" y="27.06" width="9.32" height="9.02"/><rect class="cls-1" x="325.98" y="108.24" width="9.31" height="9.01"/><rect class="cls-1" x="325.98" y="27.06" width="9.31" height="9.02"/><rect class="cls-1" x="316.67" y="117.25" width="9.31" height="9.02"/><rect class="cls-1" x="316.67" y="108.24" width="9.31" height="9.01"/><rect class="cls-1" x="316.67" y="27.06" width="9.31" height="9.02"/><rect class="cls-1" x="316.67" y="18.04" width="9.31" height="9.02"/><rect class="cls-1" x="307.35" y="117.25" width="9.32" height="9.02"/><rect class="cls-1" x="307.35" y="18.04" width="9.32" height="9.02"/><rect class="cls-1" x="298.04" y="126.27" width="9.31" height="9.02"/><rect class="cls-1" x="298.04" y="117.25" width="9.31" height="9.02"/><rect class="cls-1" x="298.04" y="9.02" width="9.31" height="9.02"/><rect class="cls-1" x="288.73" y="126.27" width="9.31" height="9.02"/><rect class="cls-1" x="288.73" y="9.02" width="9.31" height="9.02"/><rect class="cls-1" x="279.41" y="135.29" width="9.32" height="9.02"/><rect class="cls-1" x="279.41" y="126.27" width="9.32" height="9.02"/><rect class="cls-1" x="279.41" y="9.02" width="9.32" height="9.02"/><rect class="cls-1" x="270.1" y="144.31" width="9.31" height="9.02"/><rect class="cls-1" x="270.1" y="135.29" width="9.31" height="9.02"/><rect class="cls-1" x="270.1" y="9.02" width="9.31" height="9.02"/><rect class="cls-1" x="260.78" y="144.31" width="9.32" height="9.02"/><rect class="cls-1" x="260.78" y="9.02" width="9.32" height="9.02"/><rect class="cls-1" x="260.78" width="9.32" height="9.02"/><rect class="cls-1" x="251.47" y="153.33" width="9.31" height="9.02"/><rect class="cls-1" x="251.47" y="144.31" width="9.31" height="9.02"/><rect class="cls-1" x="251.47" width="9.31" height="9.02"/><rect class="cls-1" x="242.16" y="162.35" width="9.31" height="9.02"/><rect class="cls-1" x="242.16" y="153.33" width="9.31" height="9.02"/><rect class="cls-1" x="242.16" width="9.31" height="9.02"/><rect class="cls-1" x="232.84" y="189.41" width="9.32" height="9.02"/><rect class="cls-1" x="232.84" y="180.39" width="9.32" height="9.02"/><rect class="cls-1" x="232.84" y="171.37" width="9.32" height="9.02"/><rect class="cls-1" x="232.84" y="162.35" width="9.32" height="9.02"/><rect class="cls-1" x="232.84" width="9.32" height="9.02"/><rect class="cls-1" x="223.53" width="9.31" height="9.02"/><rect class="cls-1" x="214.22" width="9.31" height="9.02"/><rect class="cls-1" x="204.9" width="9.32" height="9.02"/><rect class="cls-1" x="195.59" width="9.31" height="9.02"/><rect class="cls-1" x="186.27" width="9.32" height="9.02"/><rect class="cls-1" x="176.96" width="9.31" height="9.02"/><rect class="cls-1" x="167.65" y="9.02" width="9.31" height="9.02"/><rect class="cls-1" x="167.65" width="9.31" height="9.02"/><rect class="cls-1" x="158.33" y="9.02" width="9.32" height="9.02"/><rect class="cls-1" x="149.02" y="9.02" width="9.31" height="9.02"/><rect class="cls-1" x="139.71" y="9.02" width="9.31" height="9.02"/><rect class="cls-1" x="130.39" y="9.02" width="9.32" height="9.02"/><rect class="cls-1" x="121.08" y="9.02" width="9.31" height="9.02"/><rect class="cls-1" x="111.76" y="18.04" width="9.32" height="9.02"/><rect class="cls-1" x="102.45" y="18.04" width="9.31" height="9.02"/><rect class="cls-1" x="102.45" y="9.02" width="9.31" height="9.02"/><rect class="cls-1" x="93.14" y="9.02" width="9.31" height="9.02"/><rect class="cls-1" x="83.82" y="9.02" width="9.32" height="9.02"/><rect class="cls-1" x="74.51" y="9.02" width="9.31" height="9.02"/><rect class="cls-1" x="65.2" y="9.02" width="9.31" height="9.02"/><rect class="cls-1" x="55.88" y="9.02" width="9.32" height="9.02"/><rect class="cls-1" x="46.57" y="18.04" width="9.31" height="9.02"/><rect class="cls-1" x="46.57" y="9.02" width="9.31" height="9.02"/><rect class="cls-1" x="37.25" y="27.06" width="9.32" height="9.02"/><rect class="cls-1" x="37.25" y="18.04" width="9.32" height="9.02"/><rect class="cls-1" x="27.94" y="27.06" width="9.31" height="9.02"/></svg>