<svg id="template_copy_4" data-name="template copy 4" xmlns="http://www.w3.org/2000/svg" viewBox="0 0 316.67 387.84"><defs><style>.cls-1{fill:#fff;}</style></defs><title>mush_stage2</title><rect class="cls-1" x="204.91" y="207.45" width="9.31" height="9.02"/><rect class="cls-1" x="167.65" y="198.43" width="9.32" height="9.02"/><rect class="cls-1" x="176.97" y="198.43" width="9.31" height="9.02"/><rect class="cls-1" x="186.28" y="198.43" width="9.31" height="9.02"/><rect class="cls-1" x="195.59" y="198.43" width="9.32" height="9.02"/><rect class="cls-1" x="186.28" y="207.45" width="9.31" height="9.02"/><rect class="cls-1" x="195.59" y="207.45" width="9.32" height="9.02"/><rect class="cls-1" x="195.59" y="216.47" width="9.32" height="9.02"/><rect class="cls-1" x="139.71" y="189.41" width="9.31" height="9.02"/><rect class="cls-1" x="130.4" y="189.41" width="9.31" height="9.02"/><rect class="cls-1" x="158.34" y="189.41" width="9.31" height="9.02"/><rect class="cls-1" x="121.08" y="189.41" width="9.32" height="9.02"/><rect class="cls-1" x="111.77" y="180.39" width="9.31" height="9.02"/><rect class="cls-1" x="93.14" y="180.39" width="9.32" height="9.02"/><rect class="cls-1" x="102.46" y="180.39" width="9.31" height="9.02"/><rect class="cls-1" x="214.22" y="9.02" width="9.31" height="9.02"/><rect class="cls-1" x="204.91" y="9.02" width="9.31" height="9.02"/><rect class="cls-1" x="167.65" y="9.02" width="9.32" height="9.02"/><rect class="cls-1" x="176.97" y="9.02" width="9.31" height="9.02"/><rect class="cls-1" x="186.28" y="9.02" width="9.31" height="9.02"/><rect class="cls-1" x="195.59" y="9.02" width="9.32" height="9.02"/><rect class="cls-1" x="149.02" y="9.02" width="9.32" height="9.02"/><rect class="cls-1" x="158.34" y="9.02" width="9.31" height="9.02"/><rect class="cls-1" x="204.91" width="9.31" height="9.02"/><rect class="cls-1" x="214.22" width="9.31" height="9.02"/><rect class="cls-1" x="223.53" y="9.02" width="9.32" height="9.02"/><rect class="cls-1" x="223.53" width="9.32" height="9.02"/><rect class="cls-1" x="232.85" y="9.02" width="9.31" height="9.02"/><rect class="cls-1" x="242.16" y="9.02" width="9.32" height="9.02"/><rect class="cls-1" x="251.48" y="9.02" width="9.31" height="9.02"/><rect class="cls-1" x="176.97" width="9.31" height="9.02"/><rect class="cls-1" x="167.65" width="9.32" height="9.02"/><rect class="cls-1" x="195.59" width="9.32" height="9.02"/><rect class="cls-1" x="186.28" width="9.31" height="9.02"/><rect class="cls-1" x="139.71" y="9.02" width="9.31" height="9.02"/><rect class="cls-1" x="130.4" y="9.02" width="9.31" height="9.02"/><rect class="cls-1" x="149.02" width="9.32" height="9.02"/><rect class="cls-1" x="158.34" width="9.31" height="9.02"/><rect class="cls-1" x="121.08" y="9.02" width="9.32" height="9.02"/><rect class="cls-1" x="111.77" y="9.02" width="9.31" height="9.02"/><rect class="cls-1" x="93.14" y="9.02" width="9.32" height="9.02"/><rect class="cls-1" x="102.46" y="9.02" width="9.31" height="9.02"/><rect class="cls-1" x="130.4" y="18.04" width="9.31" height="9.02"/><rect class="cls-1" x="121.08" y="18.04" width="9.32" height="9.02"/><rect class="cls-1" x="111.77" y="18.04" width="9.31" height="9.02"/><rect class="cls-1" x="65.2" y="18.04" width="9.31" height="9.02"/><rect class="cls-1" x="74.51" y="18.04" width="9.32" height="9.02"/><rect class="cls-1" x="83.83" y="18.04" width="9.31" height="9.02"/><rect class="cls-1" x="93.14" y="18.04" width="9.32" height="9.02"/><rect class="cls-1" x="102.46" y="18.04" width="9.31" height="9.02"/><rect class="cls-1" x="167.65" y="18.04" width="9.32" height="9.02"/><rect class="cls-1" x="176.97" y="18.04" width="9.31" height="9.02"/><rect class="cls-1" x="186.28" y="18.04" width="9.31" height="9.02"/><rect class="cls-1" x="139.71" y="18.04" width="9.31" height="9.02"/><rect class="cls-1" x="149.02" y="18.04" width="9.32" height="9.02"/><rect class="cls-1" x="158.34" y="18.04" width="9.31" height="9.02"/><rect class="cls-1" x="130.4" y="234.51" width="9.31" height="9.02"/><rect class="cls-1" x="139.71" y="225.49" width="9.31" height="9.02"/><rect class="cls-1" x="149.02" y="207.45" width="9.32" height="9.02"/><rect class="cls-1" x="130.4" y="243.53" width="9.31" height="9.02"/><rect class="cls-1" x="139.71" y="216.47" width="9.31" height="9.02"/><rect class="cls-1" x="139.71" y="207.45" width="9.31" height="9.02"/><rect class="cls-1" x="158.34" y="207.45" width="9.31" height="9.02"/><rect class="cls-1" x="307.36" y="297.65" width="9.31" height="9.02"/><rect class="cls-1" x="307.36" y="288.63" width="9.31" height="9.02"/><rect class="cls-1" x="307.36" y="279.61" width="9.31" height="9.02"/><rect class="cls-1" x="307.36" y="270.59" width="9.31" height="9.02"/><rect class="cls-1" x="307.36" y="261.57" width="9.31" height="9.02"/><rect class="cls-1" x="307.36" y="252.55" width="9.31" height="9.02"/><rect class="cls-1" x="307.36" y="243.53" width="9.31" height="9.02"/><rect class="cls-1" x="307.36" y="234.51" width="9.31" height="9.02"/><rect class="cls-1" x="307.36" y="36.08" width="9.31" height="9.02"/><rect class="cls-1" x="307.36" y="27.06" width="9.31" height="9.02"/><rect class="cls-1" x="298.04" y="315.69" width="9.32" height="9.02"/><rect class="cls-1" x="298.04" y="306.67" width="9.32" height="9.02"/><rect class="cls-1" x="298.04" y="297.65" width="9.32" height="9.02"/><rect class="cls-1" x="298.04" y="234.51" width="9.32" height="9.02"/><rect class="cls-1" x="298.04" y="225.49" width="9.32" height="9.02"/><rect class="cls-1" x="298.04" y="216.47" width="9.32" height="9.02"/><rect class="cls-1" x="298.04" y="207.45" width="9.32" height="9.02"/><rect class="cls-1" x="298.04" y="45.1" width="9.32" height="9.02"/><rect class="cls-1" x="298.04" y="36.08" width="9.32" height="9.02"/><rect class="cls-1" x="298.04" y="27.06" width="9.32" height="9.02"/><rect class="cls-1" x="288.73" y="324.71" width="9.31" height="9.02"/><rect class="cls-1" x="288.73" y="315.69" width="9.31" height="9.02"/><rect class="cls-1" x="288.73" y="207.45" width="9.31" height="9.02"/><rect class="cls-1" x="288.73" y="198.43" width="9.31" height="9.02"/><rect class="cls-1" x="288.73" y="54.12" width="9.31" height="9.02"/><rect class="cls-1" x="288.73" y="45.1" width="9.31" height="9.02"/><rect class="cls-1" x="288.73" y="36.08" width="9.31" height="9.02"/><rect class="cls-1" x="288.73" y="27.06" width="9.31" height="9.02"/><rect class="cls-1" x="288.73" y="18.04" width="9.31" height="9.02"/><rect class="cls-1" x="279.42" y="333.73" width="9.31" height="9.01"/><rect class="cls-1" x="279.42" y="324.71" width="9.31" height="9.02"/><rect class="cls-1" x="279.42" y="189.41" width="9.31" height="9.02"/><rect class="cls-1" x="279.42" y="54.12" width="9.31" height="9.02"/><rect class="cls-1" x="279.42" y="36.08" width="9.31" height="9.02"/><rect class="cls-1" x="279.42" y="27.06" width="9.31" height="9.02"/><rect class="cls-1" x="279.42" y="18.04" width="9.31" height="9.02"/><rect class="cls-1" x="270.1" y="333.73" width="9.32" height="9.01"/><rect class="cls-1" x="270.1" y="180.39" width="9.32" height="9.02"/><rect class="cls-1" x="270.1" y="171.37" width="9.32" height="9.02"/><rect class="cls-1" x="270.1" y="63.14" width="9.32" height="9.02"/><rect class="cls-1" x="270.1" y="54.12" width="9.32" height="9.02"/><rect class="cls-1" x="270.1" y="36.08" width="9.32" height="9.02"/><rect class="cls-1" x="270.1" y="27.06" width="9.32" height="9.02"/><rect class="cls-1" x="270.1" y="18.04" width="9.32" height="9.02"/><rect class="cls-1" x="260.79" y="333.73" width="9.31" height="9.01"/><rect class="cls-1" x="260.79" y="171.37" width="9.31" height="9.02"/><rect class="cls-1" x="260.79" y="162.35" width="9.31" height="9.02"/><rect class="cls-1" x="260.79" y="72.16" width="9.31" height="9.02"/><rect class="cls-1" x="260.79" y="63.14" width="9.31" height="9.02"/><rect class="cls-1" x="260.79" y="36.08" width="9.31" height="9.02"/><rect class="cls-1" x="260.79" y="27.06" width="9.31" height="9.02"/><rect class="cls-1" x="260.79" y="18.04" width="9.31" height="9.02"/><rect class="cls-1" x="251.48" y="342.74" width="9.31" height="9.02"/><rect class="cls-1" x="251.48" y="333.73" width="9.31" height="9.01"/><rect class="cls-1" x="251.48" y="162.35" width="9.31" height="9.02"/><rect class="cls-1" x="251.48" y="153.33" width="9.31" height="9.02"/><rect class="cls-1" x="251.48" y="144.31" width="9.31" height="9.02"/><rect class="cls-1" x="251.48" y="90.2" width="9.31" height="9.02"/><rect class="cls-1" x="251.48" y="81.18" width="9.31" height="9.02"/><rect class="cls-1" x="251.48" y="36.08" width="9.31" height="9.02"/><rect class="cls-1" x="251.48" y="27.06" width="9.31" height="9.02"/><rect class="cls-1" x="251.48" y="18.04" width="9.31" height="9.02"/><rect class="cls-1" x="242.16" y="342.74" width="9.32" height="9.02"/><rect class="cls-1" x="242.16" y="144.31" width="9.32" height="9.02"/><rect class="cls-1" x="242.16" y="135.29" width="9.32" height="9.02"/><rect class="cls-1" x="242.16" y="99.22" width="9.32" height="9.01"/><rect class="cls-1" x="242.16" y="90.2" width="9.32" height="9.02"/><rect class="cls-1" x="242.16" y="36.08" width="9.32" height="9.02"/><rect class="cls-1" x="242.16" y="27.06" width="9.32" height="9.02"/><rect class="cls-1" x="242.16" y="18.04" width="9.32" height="9.02"/><rect class="cls-1" x="232.85" y="342.74" width="9.31" height="9.02"/><rect class="cls-1" x="232.85" y="333.73" width="9.31" height="9.01"/><rect class="cls-1" x="232.85" y="135.29" width="9.31" height="9.02"/><rect class="cls-1" x="232.85" y="126.27" width="9.31" height="9.02"/><rect class="cls-1" x="232.85" y="117.25" width="9.31" height="9.02"/><rect class="cls-1" x="232.85" y="108.23" width="9.31" height="9.02"/><rect class="cls-1" x="232.85" y="99.22" width="9.31" height="9.01"/><rect class="cls-1" x="232.85" y="36.08" width="9.31" height="9.02"/><rect class="cls-1" x="232.85" y="27.06" width="9.31" height="9.02"/><rect class="cls-1" x="232.85" y="18.04" width="9.31" height="9.02"/><rect class="cls-1" x="223.53" y="360.78" width="9.32" height="9.02"/><rect class="cls-1" x="223.53" y="351.76" width="9.32" height="9.02"/><rect class="cls-1" x="223.53" y="342.74" width="9.32" height="9.02"/><rect class="cls-1" x="223.53" y="333.73" width="9.32" height="9.01"/><rect class="cls-1" x="223.53" y="324.71" width="9.32" height="9.02"/><rect class="cls-1" x="223.53" y="144.31" width="9.32" height="9.02"/><rect class="cls-1" x="223.53" y="135.29" width="9.32" height="9.02"/><rect class="cls-1" x="223.53" y="45.1" width="9.32" height="9.02"/><rect class="cls-1" x="223.53" y="36.08" width="9.32" height="9.02"/><rect class="cls-1" x="223.53" y="27.06" width="9.32" height="9.02"/><rect class="cls-1" x="223.53" y="18.04" width="9.32" height="9.02"/><rect class="cls-1" x="214.22" y="378.82" width="9.31" height="9.02"/><rect class="cls-1" x="214.22" y="369.8" width="9.31" height="9.02"/><rect class="cls-1" x="214.22" y="360.78" width="9.31" height="9.02"/><rect class="cls-1" x="214.22" y="324.71" width="9.31" height="9.02"/><rect class="cls-1" x="214.22" y="315.69" width="9.31" height="9.02"/><rect class="cls-1" x="214.22" y="153.33" width="9.31" height="9.02"/><rect class="cls-1" x="214.22" y="144.31" width="9.31" height="9.02"/><rect class="cls-1" x="214.22" y="63.14" width="9.31" height="9.02"/><rect class="cls-1" x="214.22" y="54.12" width="9.31" height="9.02"/><rect class="cls-1" x="214.22" y="45.1" width="9.31" height="9.02"/><rect class="cls-1" x="214.22" y="36.08" width="9.31" height="9.02"/><rect class="cls-1" x="214.22" y="27.06" width="9.31" height="9.02"/><rect class="cls-1" x="214.22" y="18.04" width="9.31" height="9.02"/><rect class="cls-1" x="204.91" y="378.82" width="9.31" height="9.02"/><rect class="cls-1" x="204.91" y="315.69" width="9.31" height="9.02"/><rect class="cls-1" x="204.91" y="306.67" width="9.31" height="9.02"/><rect class="cls-1" x="204.91" y="153.33" width="9.31" height="9.02"/><rect class="cls-1" x="204.91" y="117.25" width="9.31" height="9.02"/><rect class="cls-1" x="204.91" y="108.23" width="9.31" height="9.02"/><rect class="cls-1" x="204.91" y="99.22" width="9.31" height="9.01"/><rect class="cls-1" x="204.91" y="90.2" width="9.31" height="9.02"/><rect class="cls-1" x="204.91" y="81.18" width="9.31" height="9.02"/><rect class="cls-1" x="204.91" y="72.16" width="9.31" height="9.02"/><rect class="cls-1" x="204.91" y="63.14" width="9.31" height="9.02"/><rect class="cls-1" x="204.91" y="36.08" width="9.31" height="9.02"/><rect class="cls-1" x="204.91" y="27.06" width="9.31" height="9.02"/><rect class="cls-1" x="204.91" y="18.04" width="9.31" height="9.02"/><rect class="cls-1" x="195.59" y="378.82" width="9.32" height="9.02"/><rect class="cls-1" x="195.59" y="306.67" width="9.32" height="9.02"/><rect class="cls-1" x="195.59" y="153.33" width="9.32" height="9.02"/><rect class="cls-1" x="195.59" y="36.08" width="9.32" height="9.02"/><rect class="cls-1" x="195.59" y="27.06" width="9.32" height="9.02"/><rect class="cls-1" x="195.59" y="18.04" width="9.32" height="9.02"/><rect class="cls-1" x="186.28" y="378.82" width="9.31" height="9.02"/><rect class="cls-1" x="186.28" y="306.67" width="9.31" height="9.02"/><rect class="cls-1" x="186.28" y="297.65" width="9.31" height="9.02"/><rect class="cls-1" x="186.28" y="225.49" width="9.31" height="9.02"/><rect class="cls-1" x="186.28" y="216.47" width="9.31" height="9.02"/><rect class="cls-1" x="186.28" y="162.35" width="9.31" height="9.02"/><rect class="cls-1" x="186.28" y="153.33" width="9.31" height="9.02"/><rect class="cls-1" x="186.28" y="36.08" width="9.31" height="9.02"/><rect class="cls-1" x="186.28" y="27.06" width="9.31" height="9.02"/><rect class="cls-1" x="176.97" y="378.82" width="9.31" height="9.02"/><rect class="cls-1" x="176.97" y="297.65" width="9.31" height="9.02"/><rect class="cls-1" x="176.97" y="288.63" width="9.31" height="9.02"/><rect class="cls-1" x="176.97" y="225.49" width="9.31" height="9.02"/><rect class="cls-1" x="176.97" y="207.45" width="9.31" height="9.02"/><rect class="cls-1" x="176.97" y="162.35" width="9.31" height="9.02"/><rect class="cls-1" x="176.97" y="36.08" width="9.31" height="9.02"/><rect class="cls-1" x="176.97" y="27.06" width="9.31" height="9.02"/><rect class="cls-1" x="167.65" y="378.82" width="9.32" height="9.02"/><rect class="cls-1" x="167.65" y="288.63" width="9.32" height="9.02"/><rect class="cls-1" x="167.65" y="279.61" width="9.32" height="9.02"/><rect class="cls-1" x="167.65" y="270.59" width="9.32" height="9.02"/><rect class="cls-1" x="167.65" y="261.57" width="9.32" height="9.02"/><rect class="cls-1" x="167.65" y="252.55" width="9.32" height="9.02"/><rect class="cls-1" x="167.65" y="243.53" width="9.32" height="9.02"/><rect class="cls-1" x="167.65" y="234.51" width="9.32" height="9.02"/><rect class="cls-1" x="167.65" y="225.49" width="9.32" height="9.02"/><rect class="cls-1" x="167.65" y="207.45" width="9.32" height="9.02"/><rect class="cls-1" x="167.65" y="162.35" width="9.32" height="9.02"/><rect class="cls-1" x="167.65" y="36.08" width="9.32" height="9.02"/><rect class="cls-1" x="167.65" y="27.06" width="9.32" height="9.02"/><rect class="cls-1" x="158.34" y="378.82" width="9.31" height="9.02"/><rect class="cls-1" x="158.34" y="270.59" width="9.31" height="9.02"/><rect class="cls-1" x="158.34" y="261.57" width="9.31" height="9.02"/><rect class="cls-1" x="158.34" y="198.43" width="9.31" height="9.02"/><rect class="cls-1" x="158.34" y="171.37" width="9.31" height="9.02"/><rect class="cls-1" x="158.34" y="162.35" width="9.31" height="9.02"/><rect class="cls-1" x="158.34" y="36.08" width="9.31" height="9.02"/><rect class="cls-1" x="158.34" y="27.06" width="9.31" height="9.02"/><rect class="cls-1" x="149.02" y="369.8" width="9.32" height="9.02"/><rect class="cls-1" x="149.02" y="270.59" width="9.32" height="9.02"/><rect class="cls-1" x="149.02" y="198.43" width="9.32" height="9.02"/><rect class="cls-1" x="149.02" y="189.41" width="9.32" height="9.02"/><rect class="cls-1" x="149.02" y="180.39" width="9.32" height="9.02"/><rect class="cls-1" x="149.02" y="171.37" width="9.32" height="9.02"/><rect class="cls-1" x="149.02" y="162.35" width="9.32" height="9.02"/><rect class="cls-1" x="149.02" y="99.22" width="9.32" height="9.01"/><rect class="cls-1" x="149.02" y="36.08" width="9.32" height="9.02"/><rect class="cls-1" x="149.02" y="27.06" width="9.32" height="9.02"/><rect class="cls-1" x="139.71" y="369.8" width="9.31" height="9.02"/><rect class="cls-1" x="139.71" y="360.78" width="9.31" height="9.02"/><rect class="cls-1" x="139.71" y="270.59" width="9.31" height="9.02"/><rect class="cls-1" x="139.71" y="198.43" width="9.31" height="9.02"/><rect class="cls-1" x="139.71" y="162.35" width="9.31" height="9.02"/><rect class="cls-1" x="139.71" y="153.33" width="9.31" height="9.02"/><rect class="cls-1" x="139.71" y="144.31" width="9.31" height="9.02"/><rect class="cls-1" x="139.71" y="135.29" width="9.31" height="9.02"/><rect class="cls-1" x="139.71" y="99.22" width="9.31" height="9.01"/><rect class="cls-1" x="139.71" y="90.2" width="9.31" height="9.02"/><rect class="cls-1" x="139.71" y="81.18" width="9.31" height="9.02"/><rect class="cls-1" x="139.71" y="36.08" width="9.31" height="9.02"/><rect class="cls-1" x="139.71" y="27.06" width="9.31" height="9.02"/><rect class="cls-1" x="130.4" y="360.78" width="9.31" height="9.02"/><rect class="cls-1" x="130.4" y="279.61" width="9.31" height="9.02"/><rect class="cls-1" x="130.4" y="270.59" width="9.31" height="9.02"/><rect class="cls-1" x="130.4" y="198.43" width="9.31" height="9.02"/><rect class="cls-1" x="130.4" y="135.29" width="9.31" height="9.02"/><rect class="cls-1" x="130.4" y="126.27" width="9.31" height="9.02"/><rect class="cls-1" x="130.4" y="81.18" width="9.31" height="9.02"/><rect class="cls-1" x="130.4" y="72.16" width="9.31" height="9.02"/><rect class="cls-1" x="130.4" y="36.08" width="9.31" height="9.02"/><rect class="cls-1" x="130.4" y="27.06" width="9.31" height="9.02"/><rect class="cls-1" x="121.08" y="360.78" width="9.32" height="9.02"/><rect class="cls-1" x="121.08" y="351.76" width="9.32" height="9.02"/><rect class="cls-1" x="121.08" y="279.61" width="9.32" height="9.02"/><rect class="cls-1" x="121.08" y="270.59" width="9.32" height="9.02"/><rect class="cls-1" x="121.08" y="198.43" width="9.32" height="9.02"/><rect class="cls-1" x="121.08" y="126.27" width="9.32" height="9.02"/><rect class="cls-1" x="121.08" y="72.16" width="9.32" height="9.02"/><rect class="cls-1" x="121.08" y="36.08" width="9.32" height="9.02"/><rect class="cls-1" x="121.08" y="27.06" width="9.32" height="9.02"/><rect class="cls-1" x="111.77" y="342.74" width="9.31" height="9.02"/><rect class="cls-1" x="111.77" y="333.73" width="9.31" height="9.01"/><rect class="cls-1" x="111.77" y="279.61" width="9.31" height="9.02"/><rect class="cls-1" x="111.77" y="198.43" width="9.31" height="9.02"/><rect class="cls-1" x="111.77" y="189.41" width="9.31" height="9.02"/><rect class="cls-1" x="111.77" y="126.27" width="9.31" height="9.02"/><rect class="cls-1" x="111.77" y="117.25" width="9.31" height="9.02"/><rect class="cls-1" x="111.77" y="63.14" width="9.31" height="9.02"/><rect class="cls-1" x="111.77" y="45.1" width="9.31" height="9.02"/><rect class="cls-1" x="111.77" y="36.08" width="9.31" height="9.02"/><rect class="cls-1" x="111.77" y="27.06" width="9.31" height="9.02"/><rect class="cls-1" x="102.46" y="333.73" width="9.31" height="9.01"/><rect class="cls-1" x="102.46" y="324.71" width="9.31" height="9.02"/><rect class="cls-1" x="102.46" y="315.69" width="9.31" height="9.02"/><rect class="cls-1" x="102.46" y="279.61" width="9.31" height="9.02"/><rect class="cls-1" x="102.46" y="243.53" width="9.31" height="9.02"/><rect class="cls-1" x="102.46" y="234.51" width="9.31" height="9.02"/><rect class="cls-1" x="102.46" y="198.43" width="9.31" height="9.02"/><rect class="cls-1" x="102.46" y="189.41" width="9.31" height="9.02"/><rect class="cls-1" x="102.46" y="117.25" width="9.31" height="9.02"/><rect class="cls-1" x="102.46" y="108.23" width="9.31" height="9.02"/><rect class="cls-1" x="102.46" y="63.14" width="9.31" height="9.02"/><rect class="cls-1" x="102.46" y="54.12" width="9.31" height="9.02"/><rect class="cls-1" x="102.46" y="45.1" width="9.31" height="9.02"/><rect class="cls-1" x="102.46" y="36.08" width="9.31" height="9.02"/><rect class="cls-1" x="102.46" y="27.06" width="9.31" height="9.02"/><rect class="cls-1" x="93.14" y="315.69" width="9.32" height="9.02"/><rect class="cls-1" x="93.14" y="306.67" width="9.32" height="9.02"/><rect class="cls-1" x="93.14" y="297.65" width="9.32" height="9.02"/><rect class="cls-1" x="93.14" y="288.63" width="9.32" height="9.02"/><rect class="cls-1" x="93.14" y="279.61" width="9.32" height="9.02"/><rect class="cls-1" x="93.14" y="270.59" width="9.32" height="9.02"/><rect class="cls-1" x="93.14" y="261.57" width="9.32" height="9.02"/><rect class="cls-1" x="93.14" y="234.51" width="9.32" height="9.02"/><rect class="cls-1" x="93.14" y="225.49" width="9.32" height="9.02"/><rect class="cls-1" x="93.14" y="216.47" width="9.32" height="9.02"/><rect class="cls-1" x="93.14" y="198.43" width="9.32" height="9.02"/><rect class="cls-1" x="93.14" y="189.41" width="9.32" height="9.02"/><rect class="cls-1" x="93.14" y="108.23" width="9.32" height="9.02"/><rect class="cls-1" x="93.14" y="54.12" width="9.32" height="9.02"/><rect class="cls-1" x="93.14" y="45.1" width="9.32" height="9.02"/><rect class="cls-1" x="93.14" y="36.08" width="9.32" height="9.02"/><rect class="cls-1" x="93.14" y="27.06" width="9.32" height="9.02"/><rect class="cls-1" x="83.83" y="261.57" width="9.31" height="9.02"/><rect class="cls-1" x="83.83" y="252.55" width="9.31" height="9.02"/><rect class="cls-1" x="83.83" y="243.53" width="9.31" height="9.02"/><rect class="cls-1" x="83.83" y="216.47" width="9.31" height="9.02"/><rect class="cls-1" x="83.83" y="207.45" width="9.31" height="9.02"/><rect class="cls-1" x="83.83" y="198.43" width="9.31" height="9.02"/><rect class="cls-1" x="83.83" y="189.41" width="9.31" height="9.02"/><rect class="cls-1" x="83.83" y="180.39" width="9.31" height="9.02"/><rect class="cls-1" x="83.83" y="108.23" width="9.31" height="9.02"/><rect class="cls-1" x="83.83" y="99.22" width="9.31" height="9.01"/><rect class="cls-1" x="83.83" y="54.12" width="9.31" height="9.02"/><rect class="cls-1" x="83.83" y="45.1" width="9.31" height="9.02"/><rect class="cls-1" x="83.83" y="36.08" width="9.31" height="9.02"/><rect class="cls-1" x="83.83" y="27.06" width="9.31" height="9.02"/><rect class="cls-1" x="74.51" y="243.53" width="9.32" height="9.02"/><rect class="cls-1" x="74.51" y="234.51" width="9.32" height="9.02"/><rect class="cls-1" x="74.51" y="216.47" width="9.32" height="9.02"/><rect class="cls-1" x="74.51" y="207.45" width="9.32" height="9.02"/><rect class="cls-1" x="74.51" y="198.43" width="9.32" height="9.02"/><rect class="cls-1" x="74.51" y="189.41" width="9.32" height="9.02"/><rect class="cls-1" x="74.51" y="180.39" width="9.32" height="9.02"/><rect class="cls-1" x="74.51" y="99.22" width="9.32" height="9.01"/><rect class="cls-1" x="74.51" y="54.12" width="9.32" height="9.02"/><rect class="cls-1" x="74.51" y="45.1" width="9.32" height="9.02"/><rect class="cls-1" x="74.51" y="36.08" width="9.32" height="9.02"/><rect class="cls-1" x="74.51" y="27.06" width="9.32" height="9.02"/><rect class="cls-1" x="65.2" y="234.51" width="9.31" height="9.02"/><rect class="cls-1" x="65.2" y="207.45" width="9.31" height="9.02"/><rect class="cls-1" x="65.2" y="198.43" width="9.31" height="9.02"/><rect class="cls-1" x="65.2" y="189.41" width="9.31" height="9.02"/><rect class="cls-1" x="65.2" y="180.39" width="9.31" height="9.02"/><rect class="cls-1" x="65.2" y="90.2" width="9.31" height="9.02"/><rect class="cls-1" x="65.2" y="54.12" width="9.31" height="9.02"/><rect class="cls-1" x="65.2" y="45.1" width="9.31" height="9.02"/><rect class="cls-1" x="65.2" y="36.08" width="9.31" height="9.02"/><rect class="cls-1" x="65.2" y="27.06" width="9.31" height="9.02"/><rect class="cls-1" x="55.89" y="225.49" width="9.31" height="9.02"/><rect class="cls-1" x="55.89" y="207.45" width="9.31" height="9.02"/><rect class="cls-1" x="55.89" y="198.43" width="9.31" height="9.02"/><rect class="cls-1" x="55.89" y="189.41" width="9.31" height="9.02"/><rect class="cls-1" x="55.89" y="180.39" width="9.31" height="9.02"/><rect class="cls-1" x="55.89" y="90.2" width="9.31" height="9.02"/><rect class="cls-1" x="55.89" y="81.18" width="9.31" height="9.02"/><rect class="cls-1" x="55.89" y="63.14" width="9.31" height="9.02"/><rect class="cls-1" x="55.89" y="54.12" width="9.31" height="9.02"/><rect class="cls-1" x="55.89" y="45.1" width="9.31" height="9.02"/><rect class="cls-1" x="55.89" y="36.08" width="9.31" height="9.02"/><rect class="cls-1" x="55.89" y="27.06" width="9.31" height="9.02"/><rect class="cls-1" x="46.57" y="225.49" width="9.32" height="9.02"/><rect class="cls-1" x="46.57" y="216.47" width="9.32" height="9.02"/><rect class="cls-1" x="46.57" y="207.45" width="9.32" height="9.02"/><rect class="cls-1" x="46.57" y="198.43" width="9.32" height="9.02"/><rect class="cls-1" x="46.57" y="189.41" width="9.32" height="9.02"/><rect class="cls-1" x="46.57" y="180.39" width="9.32" height="9.02"/><rect class="cls-1" x="46.57" y="81.18" width="9.32" height="9.02"/><rect class="cls-1" x="46.57" y="63.14" width="9.32" height="9.02"/><rect class="cls-1" x="46.57" y="54.12" width="9.32" height="9.02"/><rect class="cls-1" x="46.57" y="45.1" width="9.32" height="9.02"/><rect class="cls-1" x="46.57" y="36.08" width="9.32" height="9.02"/><rect class="cls-1" x="46.57" y="27.06" width="9.32" height="9.02"/><rect class="cls-1" x="37.26" y="216.47" width="9.31" height="9.02"/><rect class="cls-1" x="37.26" y="207.45" width="9.31" height="9.02"/><rect class="cls-1" x="37.26" y="198.43" width="9.31" height="9.02"/><rect class="cls-1" x="37.26" y="189.41" width="9.31" height="9.02"/><rect class="cls-1" x="37.26" y="81.18" width="9.31" height="9.02"/><rect class="cls-1" x="37.26" y="63.14" width="9.31" height="9.02"/><rect class="cls-1" x="37.26" y="54.12" width="9.31" height="9.02"/><rect class="cls-1" x="37.26" y="45.1" width="9.31" height="9.02"/><rect class="cls-1" x="37.26" y="36.08" width="9.31" height="9.02"/><rect class="cls-1" x="37.26" y="27.06" width="9.31" height="9.02"/><rect class="cls-1" x="27.95" y="216.47" width="9.31" height="9.02"/><rect class="cls-1" x="27.95" y="207.45" width="9.31" height="9.02"/><rect class="cls-1" x="27.95" y="198.43" width="9.31" height="9.02"/><rect class="cls-1" x="27.95" y="189.41" width="9.31" height="9.02"/><rect class="cls-1" x="27.95" y="81.18" width="9.31" height="9.02"/><rect class="cls-1" x="27.95" y="72.16" width="9.31" height="9.02"/><rect class="cls-1" x="27.95" y="63.14" width="9.31" height="9.02"/><rect class="cls-1" x="27.95" y="54.12" width="9.31" height="9.02"/><rect class="cls-1" x="27.95" y="45.1" width="9.31" height="9.02"/><rect class="cls-1" x="27.95" y="36.08" width="9.31" height="9.02"/><rect class="cls-1" x="27.95" y="27.06" width="9.31" height="9.02"/><rect class="cls-1" x="18.63" y="207.45" width="9.32" height="9.02"/><rect class="cls-1" x="18.63" y="198.43" width="9.32" height="9.02"/><rect class="cls-1" x="18.63" y="189.41" width="9.32" height="9.02"/><rect class="cls-1" x="18.63" y="72.16" width="9.32" height="9.02"/><rect class="cls-1" x="18.63" y="63.14" width="9.32" height="9.02"/><rect class="cls-1" x="18.63" y="54.12" width="9.32" height="9.02"/><rect class="cls-1" x="18.63" y="45.1" width="9.32" height="9.02"/><rect class="cls-1" x="9.32" y="207.45" width="9.31" height="9.02"/><rect class="cls-1" x="9.32" y="198.43" width="9.31" height="9.02"/><rect class="cls-1" x="9.32" y="189.41" width="9.31" height="9.02"/><rect class="cls-1" x="9.32" y="63.14" width="9.31" height="9.02"/><rect class="cls-1" x="9.32" y="54.12" width="9.31" height="9.02"/><rect class="cls-1" x="9.32" y="45.1" width="9.31" height="9.02"/><rect class="cls-1" y="54.12" width="9.32" height="9.02"/></svg>