<svg id="template_copy_5" data-name="template copy 5" xmlns="http://www.w3.org/2000/svg" viewBox="0 0 372.55 441.96"><defs><style>.cls-1{fill:#fff;}</style></defs><title>mush_stage3</title><rect class="cls-1" x="214.21" y="207.45" width="9.32" height="9.02"/><rect class="cls-1" x="223.53" y="9.02" width="9.31" height="9.02"/><rect class="cls-1" x="83.82" y="36.08" width="9.32" height="9.02"/><rect class="cls-1" x="149.02" y="324.71" width="9.31" height="9.01"/><rect class="cls-1" x="111.76" y="324.71" width="9.32" height="9.01"/><rect class="cls-1" x="130.39" y="333.72" width="9.31" height="9.02"/><rect class="cls-1" x="139.7" y="324.71" width="9.32" height="9.01"/><rect class="cls-1" x="121.08" y="333.72" width="9.31" height="9.02"/><rect class="cls-1" x="121.08" y="324.71" width="9.31" height="9.01"/><rect class="cls-1" x="158.33" y="324.71" width="9.32" height="9.01"/><rect class="cls-1" x="149.02" y="225.49" width="9.31" height="9.02"/><rect class="cls-1" x="130.39" y="243.53" width="9.31" height="9.02"/><rect class="cls-1" x="139.7" y="243.53" width="9.32" height="9.02"/><rect class="cls-1" x="139.7" y="234.51" width="9.32" height="9.02"/><rect class="cls-1" x="130.39" y="252.55" width="9.31" height="9.02"/><rect class="cls-1" x="130.39" y="270.59" width="9.31" height="9.02"/><rect class="cls-1" x="139.7" y="225.49" width="9.32" height="9.02"/><rect class="cls-1" x="130.39" y="261.57" width="9.31" height="9.02"/><rect class="cls-1" x="65.19" y="216.47" width="9.32" height="9.02"/><rect class="cls-1" x="55.88" y="207.45" width="9.31" height="9.02"/><rect class="cls-1" x="93.14" y="270.59" width="9.31" height="9.02"/><rect class="cls-1" x="93.14" y="261.57" width="9.31" height="9.02"/><rect class="cls-1" x="93.14" y="243.53" width="9.31" height="9.02"/><rect class="cls-1" x="93.14" y="252.55" width="9.31" height="9.02"/><rect class="cls-1" x="74.51" y="216.47" width="9.31" height="9.02"/><rect class="cls-1" x="83.82" y="234.51" width="9.32" height="9.02"/><rect class="cls-1" x="83.82" y="225.49" width="9.32" height="9.02"/><rect class="cls-1" x="74.51" y="225.49" width="9.31" height="9.02"/><rect class="cls-1" x="93.14" y="234.51" width="9.31" height="9.02"/><rect class="cls-1" x="102.45" y="270.59" width="9.31" height="9.02"/><rect class="cls-1" x="74.51" y="27.06" width="9.31" height="9.02"/><rect class="cls-1" x="102.45" y="36.08" width="9.31" height="9.02"/><rect class="cls-1" x="176.96" y="117.25" width="9.31" height="9.02"/><rect class="cls-1" x="176.96" y="126.27" width="9.31" height="9.02"/><rect class="cls-1" x="149.02" y="72.16" width="9.31" height="9.02"/><rect class="cls-1" x="139.7" y="54.12" width="9.32" height="9.02"/><rect class="cls-1" x="149.02" y="54.12" width="9.31" height="9.02"/><rect class="cls-1" x="121.08" y="36.08" width="9.31" height="9.02"/><rect class="cls-1" x="149.02" y="63.14" width="9.31" height="9.02"/><rect class="cls-1" x="186.27" y="135.29" width="9.32" height="9.02"/><rect class="cls-1" x="186.27" y="126.27" width="9.32" height="9.02"/><rect class="cls-1" x="111.76" y="36.08" width="9.32" height="9.02"/><rect class="cls-1" x="93.14" y="36.08" width="9.31" height="9.02"/><rect class="cls-1" x="167.65" y="90.2" width="9.31" height="9.01"/><rect class="cls-1" x="167.65" y="99.21" width="9.31" height="9.02"/><rect class="cls-1" x="139.7" y="45.1" width="9.32" height="9.02"/><rect class="cls-1" x="130.39" y="36.08" width="9.31" height="9.02"/><rect class="cls-1" x="167.65" y="108.23" width="9.31" height="9.02"/><rect class="cls-1" x="130.39" y="45.1" width="9.31" height="9.02"/><rect class="cls-1" x="195.59" y="135.29" width="9.31" height="9.02"/><rect class="cls-1" x="195.59" y="144.31" width="9.31" height="9.02"/><rect class="cls-1" x="204.9" y="144.31" width="9.31" height="9.02"/><rect class="cls-1" x="176.96" y="108.23" width="9.31" height="9.02"/><rect class="cls-1" x="158.33" y="81.18" width="9.32" height="9.02"/><rect class="cls-1" x="158.33" y="72.16" width="9.32" height="9.02"/><rect class="cls-1" x="214.21" y="99.21" width="9.32" height="9.02"/><rect class="cls-1" x="223.53" y="45.1" width="9.31" height="9.02"/><rect class="cls-1" x="223.53" y="27.06" width="9.31" height="9.02"/><rect class="cls-1" x="223.53" y="81.18" width="9.31" height="9.02"/><rect class="cls-1" x="223.53" y="54.12" width="9.31" height="9.02"/><rect class="cls-1" x="223.53" y="99.21" width="9.31" height="9.02"/><rect class="cls-1" x="223.53" y="90.2" width="9.31" height="9.01"/><rect class="cls-1" x="223.53" y="36.08" width="9.31" height="9.02"/><rect class="cls-1" x="223.53" y="63.14" width="9.31" height="9.02"/><rect class="cls-1" x="223.53" y="72.16" width="9.31" height="9.02"/><rect class="cls-1" x="223.53" y="18.04" width="9.31" height="9.02"/><rect class="cls-1" x="298.04" y="36.08" width="9.31" height="9.02"/><rect class="cls-1" x="298.04" y="27.06" width="9.31" height="9.02"/><rect class="cls-1" x="260.78" y="63.14" width="9.32" height="9.02"/><rect class="cls-1" x="260.78" y="81.18" width="9.32" height="9.02"/><rect class="cls-1" x="251.47" y="99.21" width="9.31" height="9.02"/><rect class="cls-1" x="260.78" y="72.16" width="9.32" height="9.02"/><rect class="cls-1" x="251.47" y="81.18" width="9.31" height="9.02"/><rect class="cls-1" x="251.47" y="90.2" width="9.31" height="9.01"/><rect class="cls-1" x="270.1" y="54.12" width="9.31" height="9.02"/><rect class="cls-1" x="270.1" y="63.14" width="9.31" height="9.02"/><rect class="cls-1" x="307.35" y="18.04" width="9.32" height="9.02"/><rect class="cls-1" x="279.41" y="54.12" width="9.31" height="9.02"/><rect class="cls-1" x="288.72" y="36.08" width="9.32" height="9.02"/><rect class="cls-1" x="288.72" y="45.1" width="9.32" height="9.02"/><rect class="cls-1" x="279.41" y="45.1" width="9.31" height="9.02"/><rect class="cls-1" x="307.35" y="27.06" width="9.32" height="9.02"/><rect class="cls-1" x="288.72" y="396.86" width="9.32" height="9.02"/><rect class="cls-1" x="288.72" y="405.88" width="9.32" height="9.02"/><rect class="cls-1" x="232.84" y="405.88" width="9.32" height="9.02"/><rect class="cls-1" x="251.47" y="405.88" width="9.31" height="9.02"/><rect class="cls-1" x="242.16" y="405.88" width="9.31" height="9.02"/><rect class="cls-1" x="260.78" y="405.88" width="9.32" height="9.02"/><rect class="cls-1" x="270.1" y="405.88" width="9.31" height="9.02"/><rect class="cls-1" x="298.04" y="396.86" width="9.31" height="9.02"/><rect class="cls-1" x="279.41" y="405.88" width="9.31" height="9.02"/><rect class="cls-1" x="149.02" y="432.94" width="9.31" height="9.02"/><rect class="cls-1" x="158.33" y="432.94" width="9.32" height="9.02"/><rect class="cls-1" x="176.96" y="432.94" width="9.31" height="9.02"/><rect class="cls-1" x="186.27" y="432.94" width="9.32" height="9.02"/><rect class="cls-1" x="195.59" y="432.94" width="9.31" height="9.02"/><rect class="cls-1" x="204.9" y="432.94" width="9.31" height="9.02"/><rect class="cls-1" x="223.53" y="423.92" width="9.31" height="9.02"/><rect class="cls-1" x="223.53" y="405.88" width="9.31" height="9.02"/><rect class="cls-1" x="214.21" y="423.92" width="9.32" height="9.02"/><rect class="cls-1" x="214.21" y="432.94" width="9.32" height="9.02"/><rect class="cls-1" x="223.53" y="414.9" width="9.31" height="9.02"/><rect class="cls-1" x="167.65" y="432.94" width="9.31" height="9.02"/><rect class="cls-1" x="18.63" y="225.49" width="9.31" height="9.02"/><rect class="cls-1" x="18.63" y="216.47" width="9.31" height="9.02"/><rect class="cls-1" x="9.31" y="216.47" width="9.32" height="9.02"/><rect class="cls-1" x="9.31" y="207.45" width="9.32" height="9.02"/><rect class="cls-1" y="207.45" width="9.31" height="9.02"/><rect class="cls-1" x="27.94" y="234.51" width="9.31" height="9.02"/><rect class="cls-1" x="27.94" y="225.49" width="9.31" height="9.02"/><rect class="cls-1" x="65.19" y="270.59" width="9.32" height="9.02"/><rect class="cls-1" x="65.19" y="279.61" width="9.32" height="9.02"/><rect class="cls-1" x="46.57" y="243.53" width="9.31" height="9.02"/><rect class="cls-1" x="55.88" y="270.59" width="9.31" height="9.02"/><rect class="cls-1" x="55.88" y="261.57" width="9.31" height="9.02"/><rect class="cls-1" x="46.57" y="252.55" width="9.31" height="9.02"/><rect class="cls-1" x="74.51" y="279.61" width="9.31" height="9.02"/><rect class="cls-1" x="74.51" y="288.63" width="9.31" height="9.02"/><rect class="cls-1" x="83.82" y="297.65" width="9.32" height="9.02"/><rect class="cls-1" x="83.82" y="288.63" width="9.32" height="9.02"/><rect class="cls-1" x="93.14" y="306.67" width="9.31" height="9.02"/><rect class="cls-1" x="93.14" y="315.69" width="9.31" height="9.02"/><rect class="cls-1" x="93.14" y="297.65" width="9.31" height="9.02"/><rect class="cls-1" x="111.76" y="396.86" width="9.32" height="9.02"/><rect class="cls-1" x="111.76" y="378.82" width="9.32" height="9.02"/><rect class="cls-1" x="111.76" y="369.8" width="9.32" height="9.02"/><rect class="cls-1" x="139.7" y="432.94" width="9.32" height="9.02"/><rect class="cls-1" x="111.76" y="387.84" width="9.32" height="9.02"/><rect class="cls-1" x="102.45" y="342.74" width="9.31" height="9.02"/><rect class="cls-1" x="102.45" y="360.78" width="9.31" height="9.02"/><rect class="cls-1" x="102.45" y="351.76" width="9.31" height="9.02"/><rect class="cls-1" x="102.45" y="333.72" width="9.31" height="9.02"/><rect class="cls-1" x="102.45" y="324.71" width="9.31" height="9.01"/><rect class="cls-1" x="37.25" y="243.53" width="9.32" height="9.02"/><rect class="cls-1" x="37.25" y="234.51" width="9.32" height="9.02"/><rect class="cls-1" x="102.45" y="315.69" width="9.31" height="9.02"/><rect class="cls-1" x="121.08" y="405.88" width="9.31" height="9.02"/><rect class="cls-1" x="121.08" y="396.86" width="9.31" height="9.02"/><rect class="cls-1" x="130.39" y="423.92" width="9.31" height="9.02"/><rect class="cls-1" x="130.39" y="414.9" width="9.31" height="9.02"/><rect class="cls-1" x="121.08" y="414.9" width="9.31" height="9.02"/><rect class="cls-1" x="18.63" y="198.43" width="9.31" height="9.02"/><rect class="cls-1" x="9.31" y="198.43" width="9.32" height="9.02"/><rect class="cls-1" x="27.94" y="198.43" width="9.31" height="9.02"/><rect class="cls-1" x="46.57" y="198.43" width="9.31" height="9.02"/><rect class="cls-1" x="65.19" y="198.43" width="9.32" height="9.02"/><rect class="cls-1" x="55.88" y="198.43" width="9.31" height="9.02"/><rect class="cls-1" x="65.19" y="207.45" width="9.32" height="9.02"/><rect class="cls-1" x="111.76" y="207.45" width="9.32" height="9.02"/><rect class="cls-1" x="93.14" y="207.45" width="9.31" height="9.02"/><rect class="cls-1" x="74.51" y="207.45" width="9.31" height="9.02"/><rect class="cls-1" x="83.82" y="207.45" width="9.32" height="9.02"/><rect class="cls-1" y="198.43" width="9.31" height="9.02"/><rect class="cls-1" x="121.08" y="207.45" width="9.31" height="9.02"/><rect class="cls-1" x="176.96" y="279.61" width="9.31" height="9.02"/><rect class="cls-1" x="176.96" y="333.72" width="9.31" height="9.02"/><rect class="cls-1" x="176.96" y="324.71" width="9.31" height="9.01"/><rect class="cls-1" x="149.02" y="216.47" width="9.31" height="9.02"/><rect class="cls-1" x="158.33" y="216.47" width="9.32" height="9.02"/><rect class="cls-1" x="130.39" y="207.45" width="9.31" height="9.02"/><rect class="cls-1" x="149.02" y="207.45" width="9.31" height="9.02"/><rect class="cls-1" x="102.45" y="207.45" width="9.31" height="9.02"/><rect class="cls-1" x="37.25" y="198.43" width="9.32" height="9.02"/><rect class="cls-1" x="167.65" y="225.49" width="9.31" height="9.02"/><rect class="cls-1" x="139.7" y="207.45" width="9.32" height="9.02"/><rect class="cls-1" x="186.27" y="261.57" width="9.32" height="9.02"/><rect class="cls-1" x="186.27" y="333.72" width="9.32" height="9.02"/><rect class="cls-1" x="195.59" y="252.55" width="9.31" height="9.02"/><rect class="cls-1" x="167.65" y="279.61" width="9.31" height="9.02"/><rect class="cls-1" x="176.96" y="270.59" width="9.31" height="9.02"/><rect class="cls-1" x="195.59" y="243.53" width="9.31" height="9.02"/><rect class="cls-1" x="186.27" y="342.74" width="9.32" height="9.02"/><rect class="cls-1" x="195.59" y="234.51" width="9.31" height="9.02"/><rect class="cls-1" x="195.59" y="261.57" width="9.31" height="9.02"/><rect class="cls-1" x="176.96" y="225.49" width="9.31" height="9.02"/><rect class="cls-1" x="186.27" y="270.59" width="9.32" height="9.02"/><rect class="cls-1" x="186.27" y="225.49" width="9.32" height="9.02"/><rect class="cls-1" x="186.27" y="234.51" width="9.32" height="9.02"/><rect class="cls-1" x="204.9" y="252.55" width="9.31" height="9.02"/><rect class="cls-1" x="195.59" y="351.76" width="9.31" height="9.02"/><rect class="cls-1" x="204.9" y="369.8" width="9.31" height="9.02"/><rect class="cls-1" x="204.9" y="360.78" width="9.31" height="9.02"/><rect class="cls-1" x="204.9" y="243.53" width="9.31" height="9.02"/><rect class="cls-1" x="195.59" y="342.74" width="9.31" height="9.02"/><rect class="cls-1" x="195.59" y="360.78" width="9.31" height="9.02"/><rect class="cls-1" x="214.21" y="387.84" width="9.32" height="9.02"/><rect class="cls-1" x="223.53" y="396.86" width="9.31" height="9.02"/><rect class="cls-1" x="214.21" y="369.8" width="9.32" height="9.02"/><rect class="cls-1" x="223.53" y="387.84" width="9.31" height="9.02"/><rect class="cls-1" x="214.21" y="378.82" width="9.32" height="9.02"/><rect class="cls-1" x="167.65" y="324.71" width="9.31" height="9.01"/><rect class="cls-1" x="167.65" y="315.69" width="9.31" height="9.02"/><rect class="cls-1" x="167.65" y="288.63" width="9.31" height="9.02"/><rect class="cls-1" x="167.65" y="306.67" width="9.31" height="9.02"/><rect class="cls-1" x="167.65" y="297.65" width="9.31" height="9.02"/><rect class="cls-1" x="186.27" y="207.45" width="9.32" height="9.02"/><rect class="cls-1" x="223.53" y="198.43" width="9.31" height="9.02"/><rect class="cls-1" x="195.59" y="198.43" width="9.31" height="9.02"/><rect class="cls-1" x="176.96" y="207.45" width="9.31" height="9.02"/><rect class="cls-1" x="204.9" y="207.45" width="9.31" height="9.02"/><rect class="cls-1" x="232.84" y="198.43" width="9.32" height="9.02"/><rect class="cls-1" x="242.16" y="198.43" width="9.31" height="9.02"/><rect class="cls-1" x="251.47" y="198.43" width="9.31" height="9.02"/><rect class="cls-1" x="298.04" y="108.23" width="9.31" height="9.02"/><rect class="cls-1" x="298.04" y="99.21" width="9.31" height="9.02"/><rect class="cls-1" x="325.98" y="279.61" width="9.31" height="9.02"/><rect class="cls-1" x="316.67" y="360.78" width="9.31" height="9.02"/><rect class="cls-1" x="316.67" y="279.61" width="9.31" height="9.02"/><rect class="cls-1" x="325.98" y="81.18" width="9.31" height="9.02"/><rect class="cls-1" x="325.98" y="297.65" width="9.31" height="9.02"/><rect class="cls-1" x="316.67" y="261.57" width="9.31" height="9.02"/><rect class="cls-1" x="307.35" y="252.55" width="9.32" height="9.02"/><rect class="cls-1" x="316.67" y="369.8" width="9.31" height="9.02"/><rect class="cls-1" x="298.04" y="252.55" width="9.31" height="9.02"/><rect class="cls-1" x="316.67" y="378.82" width="9.31" height="9.02"/><rect class="cls-1" x="325.98" y="288.63" width="9.31" height="9.02"/><rect class="cls-1" x="316.67" y="270.59" width="9.31" height="9.02"/><rect class="cls-1" x="325.98" y="90.2" width="9.31" height="9.01"/><rect class="cls-1" x="307.35" y="99.21" width="9.32" height="9.02"/><rect class="cls-1" x="307.35" y="387.84" width="9.32" height="9.02"/><rect class="cls-1" x="298.04" y="234.51" width="9.31" height="9.02"/><rect class="cls-1" x="298.04" y="243.53" width="9.31" height="9.02"/><rect class="cls-1" x="344.61" y="63.14" width="9.31" height="9.02"/><rect class="cls-1" x="353.92" y="63.14" width="9.31" height="9.02"/><rect class="cls-1" x="344.61" y="72.16" width="9.31" height="9.02"/><rect class="cls-1" x="251.47" y="144.31" width="9.31" height="9.02"/><rect class="cls-1" x="251.47" y="153.33" width="9.31" height="9.02"/><rect class="cls-1" x="251.47" y="162.35" width="9.31" height="9.02"/><rect class="cls-1" x="251.47" y="180.39" width="9.31" height="9.02"/><rect class="cls-1" x="251.47" y="171.37" width="9.31" height="9.02"/><rect class="cls-1" x="270.1" y="126.27" width="9.31" height="9.02"/><rect class="cls-1" x="260.78" y="144.31" width="9.32" height="9.02"/><rect class="cls-1" x="260.78" y="198.43" width="9.32" height="9.02"/><rect class="cls-1" x="260.78" y="135.29" width="9.32" height="9.02"/><rect class="cls-1" x="260.78" y="189.41" width="9.32" height="9.02"/><rect class="cls-1" x="270.1" y="216.47" width="9.31" height="9.02"/><rect class="cls-1" x="270.1" y="135.29" width="9.31" height="9.02"/><rect class="cls-1" x="270.1" y="207.45" width="9.31" height="9.02"/><rect class="cls-1" x="270.1" y="198.43" width="9.31" height="9.02"/><rect class="cls-1" x="260.78" y="180.39" width="9.32" height="9.02"/><rect class="cls-1" x="288.72" y="234.51" width="9.32" height="9.02"/><rect class="cls-1" x="279.41" y="126.27" width="9.31" height="9.02"/><rect class="cls-1" x="279.41" y="216.47" width="9.31" height="9.02"/><rect class="cls-1" x="288.72" y="225.49" width="9.32" height="9.02"/><rect class="cls-1" x="307.35" y="90.2" width="9.32" height="9.01"/><rect class="cls-1" x="288.72" y="108.23" width="9.32" height="9.02"/><rect class="cls-1" x="279.41" y="117.25" width="9.31" height="9.02"/><rect class="cls-1" x="307.35" y="378.82" width="9.32" height="9.02"/><rect class="cls-1" x="288.72" y="117.25" width="9.32" height="9.02"/><rect class="cls-1" x="307.35" y="261.57" width="9.32" height="9.02"/><rect class="cls-1" x="279.41" y="225.49" width="9.31" height="9.02"/><rect class="cls-1" x="335.29" y="342.74" width="9.32" height="9.02"/><rect class="cls-1" x="335.29" y="81.18" width="9.32" height="9.02"/><rect class="cls-1" x="335.29" y="333.72" width="9.32" height="9.02"/><rect class="cls-1" x="335.29" y="306.67" width="9.32" height="9.02"/><rect class="cls-1" x="325.98" y="351.76" width="9.31" height="9.02"/><rect class="cls-1" x="325.98" y="360.78" width="9.31" height="9.02"/><rect class="cls-1" x="325.98" y="342.74" width="9.31" height="9.02"/><rect class="cls-1" x="335.29" y="72.16" width="9.32" height="9.02"/><rect class="cls-1" x="316.67" y="90.2" width="9.31" height="9.01"/><rect class="cls-1" x="335.29" y="324.71" width="9.32" height="9.01"/><rect class="cls-1" x="335.29" y="297.65" width="9.32" height="9.02"/><rect class="cls-1" x="335.29" y="315.69" width="9.32" height="9.02"/><rect class="cls-1" x="363.23" y="54.12" width="9.32" height="9.02"/><rect class="cls-1" x="27.94" y="36.08" width="9.31" height="9.02"/><rect class="cls-1" x="27.94" y="45.1" width="9.31" height="9.02"/><rect class="cls-1" x="65.19" y="81.18" width="9.32" height="9.02"/><rect class="cls-1" x="55.88" y="72.16" width="9.31" height="9.02"/><rect class="cls-1" x="37.25" y="63.14" width="9.32" height="9.02"/><rect class="cls-1" x="65.19" y="90.2" width="9.32" height="9.01"/><rect class="cls-1" x="37.25" y="72.16" width="9.32" height="9.02"/><rect class="cls-1" x="55.88" y="81.18" width="9.31" height="9.02"/><rect class="cls-1" x="37.25" y="54.12" width="9.32" height="9.02"/><rect class="cls-1" x="37.25" y="45.1" width="9.32" height="9.02"/><rect class="cls-1" x="102.45" y="126.27" width="9.31" height="9.02"/><rect class="cls-1" x="74.51" y="108.23" width="9.31" height="9.02"/><rect class="cls-1" x="74.51" y="99.21" width="9.31" height="9.02"/><rect class="cls-1" x="83.82" y="108.23" width="9.32" height="9.02"/><rect class="cls-1" x="74.51" y="90.2" width="9.31" height="9.01"/><rect class="cls-1" x="93.14" y="117.25" width="9.31" height="9.02"/><rect class="cls-1" x="93.14" y="108.23" width="9.31" height="9.02"/><rect class="cls-1" x="158.33" y="180.39" width="9.32" height="9.02"/><rect class="cls-1" x="139.7" y="144.31" width="9.32" height="9.02"/><rect class="cls-1" x="158.33" y="171.37" width="9.32" height="9.02"/><rect class="cls-1" x="149.02" y="153.33" width="9.31" height="9.02"/><rect class="cls-1" x="149.02" y="162.35" width="9.31" height="9.02"/><rect class="cls-1" x="139.7" y="153.33" width="9.32" height="9.02"/><rect class="cls-1" x="111.76" y="126.27" width="9.32" height="9.02"/><rect class="cls-1" x="121.08" y="135.29" width="9.31" height="9.02"/><rect class="cls-1" x="111.76" y="135.29" width="9.32" height="9.02"/><rect class="cls-1" x="46.57" y="72.16" width="9.31" height="9.02"/><rect class="cls-1" x="167.65" y="207.45" width="9.31" height="9.02"/><rect class="cls-1" x="130.39" y="144.31" width="9.31" height="9.02"/><rect class="cls-1" x="167.65" y="198.43" width="9.31" height="9.02"/><rect class="cls-1" x="167.65" y="216.47" width="9.31" height="9.02"/><rect class="cls-1" x="167.65" y="180.39" width="9.31" height="9.02"/><rect class="cls-1" x="130.39" y="135.29" width="9.31" height="9.02"/><rect class="cls-1" x="167.65" y="189.41" width="9.31" height="9.02"/><rect class="cls-1" x="18.63" y="36.08" width="9.31" height="9.02"/><rect class="cls-1" x="158.33" y="162.35" width="9.32" height="9.02"/><rect class="cls-1" x="27.94" y="27.06" width="9.31" height="9.02"/><rect class="cls-1" x="27.94" y="18.04" width="9.31" height="9.02"/><rect class="cls-1" x="74.51" y="18.04" width="9.31" height="9.02"/><rect class="cls-1" x="37.25" y="18.04" width="9.32" height="9.02"/><rect class="cls-1" x="55.88" y="18.04" width="9.31" height="9.02"/><rect class="cls-1" x="65.19" y="18.04" width="9.32" height="9.02"/><rect class="cls-1" x="102.45" y="18.04" width="9.31" height="9.02"/><rect class="cls-1" x="83.82" y="18.04" width="9.32" height="9.02"/><rect class="cls-1" x="298.04" width="9.31" height="9.02"/><rect class="cls-1" x="298.04" y="9.02" width="9.31" height="9.02"/><rect class="cls-1" x="158.33" y="9.02" width="9.32" height="9.02"/><rect class="cls-1" x="149.02" y="9.02" width="9.31" height="9.02"/><rect class="cls-1" x="158.33" width="9.32" height="9.02"/><rect class="cls-1" x="121.08" y="18.04" width="9.31" height="9.02"/><rect class="cls-1" x="325.98" y="18.04" width="9.31" height="9.02"/><rect class="cls-1" x="344.61" y="18.04" width="9.31" height="9.02"/><rect class="cls-1" x="344.61" y="27.06" width="9.31" height="9.02"/><rect class="cls-1" x="353.92" y="27.06" width="9.31" height="9.02"/><rect class="cls-1" x="353.92" y="36.08" width="9.31" height="9.02"/><rect class="cls-1" x="111.76" y="18.04" width="9.32" height="9.02"/><rect class="cls-1" x="46.57" y="18.04" width="9.31" height="9.02"/><rect class="cls-1" x="93.14" y="18.04" width="9.31" height="9.02"/><rect class="cls-1" x="139.7" y="9.02" width="9.32" height="9.02"/><rect class="cls-1" x="130.39" y="18.04" width="9.31" height="9.02"/><rect class="cls-1" x="167.65" width="9.31" height="9.02"/><rect class="cls-1" x="195.59" width="9.31" height="9.02"/><rect class="cls-1" x="186.27" width="9.32" height="9.02"/><rect class="cls-1" x="204.9" width="9.31" height="9.02"/><rect class="cls-1" x="214.21" width="9.32" height="9.02"/><rect class="cls-1" x="242.16" width="9.31" height="9.02"/><rect class="cls-1" x="232.84" width="9.32" height="9.02"/><rect class="cls-1" x="223.53" width="9.31" height="9.02"/><rect class="cls-1" x="251.47" width="9.31" height="9.02"/><rect class="cls-1" x="260.78" width="9.32" height="9.02"/><rect class="cls-1" x="279.41" width="9.31" height="9.02"/><rect class="cls-1" x="270.1" width="9.31" height="9.02"/><rect class="cls-1" x="316.67" y="18.04" width="9.31" height="9.02"/><rect class="cls-1" x="307.35" y="9.02" width="9.32" height="9.02"/><rect class="cls-1" x="316.67" y="9.02" width="9.31" height="9.02"/><rect class="cls-1" x="288.72" width="9.32" height="9.02"/><rect class="cls-1" x="335.29" y="18.04" width="9.32" height="9.02"/><rect class="cls-1" x="363.23" y="36.08" width="9.32" height="9.02"/><rect class="cls-1" x="363.23" y="45.1" width="9.32" height="9.02"/><rect class="cls-1" x="176.96" width="9.31" height="9.02"/><rect class="cls-1" x="18.63" y="27.06" width="9.31" height="9.02"/></svg>